<?xml version="1.0" standalone="no"?>
<!DOCTYPE svg PUBLIC "-//W3C//DTD SVG 20010904//EN"
 "http://www.w3.org/TR/2001/REC-SVG-20010904/DTD/svg10.dtd">
<svg version="1.0" xmlns="http://www.w3.org/2000/svg"
 width="2973.000000pt" height="2973.000000pt" viewBox="0 0 2973.000000 2973.000000"
 preserveAspectRatio="xMidYMid meet">
<metadata>
Created by potrace 1.14, written by Peter Selinger 2001-2017
</metadata>
<g transform="translate(0.000000,2973.000000) scale(0.100000,-0.100000)"
fill="#000000" stroke="none">
<path d="M14370 29724 c-41 -2 -169 -8 -285 -14 -1881 -96 -3747 -557 -5450
-1345 -2644 -1223 -4876 -3200 -6417 -5685 -1239 -1998 -1989 -4289 -2172
-6640 -35 -442 -41 -609 -41 -1170 0 -584 7 -778 46 -1240 138 -1667 548
-3274 1225 -4800 131 -297 422 -882 574 -1155 910 -1636 2098 -3067 3536
-4262 1176 -977 2536 -1786 3954 -2353 1242 -497 2538 -822 3865 -969 618 -69
948 -86 1670 -86 597 1 721 5 1185 41 2334 181 4644 940 6640 2182 1291 804
2456 1803 3446 2955 1857 2160 3049 4797 3443 7617 54 387 89 744 123 1255 17
256 17 1364 0 1620 -24 360 -43 581 -73 850 -302 2719 -1348 5291 -3032 7457
-854 1099 -1881 2094 -3002 2909 -1539 1119 -3284 1936 -5114 2394 -918 229
-1808 364 -2816 425 -172 11 -1149 21 -1305 14z m1125 -564 c1459 -69 2823
-333 4145 -802 3221 -1142 5944 -3415 7643 -6379 1138 -1987 1766 -4146 1877
-6454 13 -271 13 -1049 0 -1320 -97 -2026 -591 -3931 -1481 -5715 -594 -1189
-1303 -2227 -2218 -3245 -174 -194 -782 -802 -976 -976 -1018 -915 -2056
-1624 -3245 -2218 -1784 -890 -3689 -1384 -5715 -1481 -271 -13 -1049 -13
-1320 0 -1151 55 -2231 233 -3314 545 -3613 1040 -6702 3501 -8536 6800 -1025
1843 -1620 3855 -1765 5960 -32 463 -40 1168 -20 1622 74 1631 408 3185 1005
4678 821 2054 2121 3904 3775 5377 2460 2188 5568 3456 8845 3607 262 12 1056
13 1300 1z"/>
<path d="M15773 28810 c-57 -34 -65 -114 -23 -234 11 -33 23 -50 31 -47 8 2
32 8 54 14 58 16 330 12 477 -7 69 -9 128 -16 130 -16 6 0 -60 -576 -92 -800
-17 -118 -54 -352 -81 -520 -60 -370 -68 -451 -46 -503 23 -54 68 -71 172 -64
44 2 105 13 135 23 61 21 58 11 39 129 -17 102 -5 429 25 687 38 329 136 991
149 1004 3 3 116 -12 251 -35 137 -23 278 -41 321 -41 131 0 185 45 185 153 0
71 -27 150 -48 142 -157 -60 -500 -36 -1223 85 -327 55 -407 61 -456 30z"/>
<path d="M13165 28784 c-27 -3 -174 -22 -325 -44 -151 -21 -299 -41 -327 -45
-29 -4 -53 -9 -53 -11 0 -3 11 -31 24 -63 89 -211 159 -699 221 -1543 29 -406
35 -426 135 -471 38 -18 64 -21 175 -20 463 1 853 141 1110 398 287 287 397
692 295 1080 -98 368 -406 625 -840 699 -97 17 -324 27 -415 20z m322 -258
c321 -68 551 -282 634 -591 17 -64 22 -111 23 -230 1 -178 -8 -223 -74 -360
-123 -255 -360 -418 -684 -470 -92 -15 -269 -20 -324 -9 l-30 6 -21 137 c-30
199 -48 337 -76 606 -25 239 -75 806 -75 849 0 21 8 25 78 40 127 27 190 33
339 35 90 1 167 -4 210 -13z"/>
<path d="M18045 28492 l-30 -7 3 -80 c5 -137 -46 -384 -153 -735 -45 -147
-126 -391 -274 -819 -94 -273 -102 -327 -53 -374 40 -38 137 -61 227 -53 106
10 101 6 96 83 -6 133 37 349 141 701 41 141 54 172 67 167 9 -2 283 -86 610
-185 327 -99 597 -183 600 -186 3 -2 -57 -190 -133 -417 -76 -227 -140 -434
-143 -460 -12 -103 47 -149 200 -155 48 -2 104 -1 123 2 l34 7 0 83 c0 225
127 702 380 1430 126 363 139 415 117 469 -25 59 -80 82 -202 81 -55 0 -111
-3 -125 -6 -24 -7 -25 -9 -22 -84 2 -42 -4 -123 -13 -178 -29 -173 -132 -547
-153 -554 -7 -2 -1145 338 -1209 363 -9 3 23 109 107 357 66 194 123 376 126
404 13 106 -42 147 -196 151 -52 1 -108 -2 -125 -5z"/>
<path d="M11508 28476 c-48 -17 -80 -38 -135 -89 l-43 -39 29 -34 c112 -127
212 -334 322 -666 44 -134 239 -787 239 -801 0 -14 -896 534 -1446 884 -333
212 -388 243 -447 254 -79 15 -158 -39 -212 -145 -30 -59 -31 -70 -7 -70 10 0
39 -13 65 -30 106 -67 171 -205 303 -642 98 -328 178 -643 200 -788 12 -82 15
-150 11 -237 l-5 -122 37 -8 c63 -13 166 -8 214 11 26 9 58 32 73 49 24 28 26
37 20 89 -3 34 -67 239 -155 501 -141 419 -301 915 -301 931 0 15 306 -168
860 -514 610 -380 994 -605 1026 -598 9 2 40 30 69 63 l53 60 -40 95 c-121
290 -219 606 -402 1300 -110 417 -139 497 -192 539 -31 24 -81 27 -136 7z"/>
<path d="M20574 27522 c-23 -70 -76 -206 -119 -302 -111 -253 -401 -834 -566
-1135 -168 -307 -174 -320 -160 -358 9 -23 31 -37 114 -75 56 -25 242 -116
412 -203 348 -176 404 -196 463 -163 51 27 76 82 80 174 l4 76 -79 11 c-43 6
-114 23 -158 37 -102 32 -505 231 -505 249 0 7 4 17 9 23 5 5 82 151 171 324
89 173 166 319 170 323 4 5 139 -57 299 -138 344 -173 376 -182 435 -123 35
35 56 89 56 144 0 29 -3 31 -72 53 -91 29 -281 113 -463 203 -77 39 -142 72
-144 74 -2 2 284 570 294 582 4 5 301 -134 395 -185 109 -59 214 -131 265
-183 21 -22 44 -40 50 -40 19 0 120 105 138 143 51 106 5 147 -324 287 -118
51 -326 145 -464 211 -137 65 -252 119 -255 119 -3 -1 -24 -58 -46 -128z"/>
<path d="M8932 27567 c-50 -19 -100 -64 -143 -130 -21 -33 -39 -63 -39 -66 0
-3 15 -12 33 -20 49 -22 206 -185 279 -291 148 -216 325 -551 386 -735 65
-194 80 -373 42 -498 -52 -167 -215 -316 -427 -389 -78 -27 -96 -30 -182 -26
-129 6 -194 38 -307 152 -145 147 -219 277 -622 1106 -92 191 -138 250 -193
250 -70 -1 -154 -57 -231 -153 l-38 -48 79 -77 c113 -111 196 -245 401 -653
208 -413 284 -534 420 -669 143 -144 266 -200 435 -200 241 0 593 175 760 377
65 79 115 172 147 273 32 103 32 308 0 454 -61 279 -231 672 -445 1031 -130
219 -188 288 -266 314 -40 13 -46 13 -89 -2z"/>
<path d="M13815 26469 c-71 -3 -168 -12 -215 -18 -220 -32 -479 -74 -639 -106
-97 -19 -201 -38 -231 -43 -51 -7 -55 -10 -60 -37 -5 -27 -10 -30 -70 -41
-178 -33 -533 -135 -799 -229 -11 -4 -10 -9 4 -25 10 -11 16 -22 14 -24 -15
-13 -167 -59 -501 -150 -212 -58 -404 -113 -428 -121 -23 -8 -56 -15 -72 -15
-16 0 -27 -4 -24 -9 5 -8 -104 -54 -112 -47 -2 2 21 14 50 25 90 36 0 15 -152
-35 -198 -66 -421 -177 -780 -389 -222 -131 -260 -152 -400 -214 -69 -31 -156
-77 -195 -103 -66 -44 -122 -72 -225 -116 -68 -28 -118 -53 -95 -48 16 5 16 2
-5 -12 -13 -9 -77 -55 -142 -103 -106 -77 -121 -85 -154 -81 l-37 5 24 19 c13
10 69 46 124 80 55 33 91 57 80 53 -11 -4 -75 -26 -142 -50 -173 -60 -208 -86
-136 -100 l36 -6 -51 -30 c-67 -38 -67 -69 -1 -69 34 0 -106 -123 -157 -138
-24 -7 -72 -34 -106 -60 -35 -27 -94 -72 -131 -100 -70 -53 -156 -102 -179
-102 -7 0 -35 -24 -63 -54 -27 -29 -110 -109 -184 -177 -156 -143 -281 -283
-315 -352 -14 -26 -26 -43 -28 -37 -5 16 -204 -156 -266 -231 -57 -68 -57 -69
-107 -69 l-50 0 -45 -72 c-25 -40 -68 -112 -96 -161 -46 -80 -58 -94 -124
-138 -114 -75 -134 -77 -107 -7 10 23 13 38 8 32 -31 -30 -359 -493 -409 -576
-52 -86 -62 -97 -71 -81 -10 17 -12 17 -29 -6 -11 -13 -57 -85 -103 -159 -64
-104 -107 -159 -178 -232 -163 -165 -310 -356 -507 -656 -210 -320 -365 -586
-651 -1119 -280 -521 -268 -497 -239 -489 14 3 26 2 26 -2 0 -5 -21 -45 -45
-89 -90 -159 -149 -286 -151 -326 -1 -25 -11 -52 -28 -74 -32 -42 -46 -44 -47
-7 0 16 -18 -22 -45 -98 -25 -69 -78 -215 -119 -325 -88 -236 -113 -329 -122
-447 -3 -49 -9 -88 -13 -88 -11 0 -20 27 -20 56 0 51 -17 21 -28 -50 -12 -77
-29 -126 -44 -126 -5 0 -6 10 -4 23 3 12 7 45 10 72 5 43 4 46 -5 20 -28 -85
-52 -228 -53 -315 -1 -113 18 -174 68 -218 l33 -29 -28 -72 c-56 -140 -72
-224 -66 -346 5 -105 4 -112 -22 -160 l-26 -50 -5 70 -5 70 -43 -215 c-45
-230 -81 -497 -82 -620 0 -41 -1 -151 -1 -245 1 -93 -6 -240 -14 -325 -13
-144 -30 -637 -21 -615 2 6 7 23 11 40 6 26 8 27 16 12 25 -44 29 -139 16
-412 -14 -327 -12 -502 8 -637 8 -54 15 -144 15 -200 0 -57 3 -140 7 -186 l6
-83 22 21 c12 11 25 20 29 20 4 0 16 -21 28 -46 18 -41 21 -77 29 -328 8 -297
19 -407 49 -527 l18 -74 2 65 c1 54 3 61 11 40 19 -48 21 -217 5 -440 -9 -124
-14 -250 -10 -280 8 -64 3 -63 -25 5 -26 64 -26 47 -1 -76 29 -141 36 -154 83
-149 27 2 47 -19 79 -85 35 -76 37 -105 4 -105 -37 0 -50 -23 -42 -78 16 -121
91 -303 272 -665 94 -187 135 -280 185 -422 32 -90 39 -103 39 -73 0 50 14 55
45 14 40 -52 78 -139 146 -327 125 -352 227 -564 315 -659 23 -25 44 -56 48
-70 6 -21 2 -19 -28 15 -19 22 -38 36 -43 32 -4 -5 14 -28 39 -53 26 -25 93
-113 149 -197 122 -181 268 -374 352 -463 47 -51 61 -73 64 -102 11 -115 177
-358 441 -646 294 -321 368 -417 357 -464 -7 -27 45 -88 297 -350 87 -90 157
-167 155 -171 -4 -16 104 -131 207 -219 129 -111 197 -162 300 -223 45 -26 90
-58 101 -70 l20 -22 -24 6 c-21 5 -20 1 15 -35 90 -93 325 -306 409 -369 119
-89 269 -183 437 -271 126 -67 138 -75 138 -101 0 -31 1 -32 138 -135 549
-410 852 -606 1106 -713 49 -20 81 -39 72 -40 -10 -2 22 -21 71 -42 48 -21
252 -123 453 -226 752 -387 1021 -488 1239 -466 39 4 87 2 116 -5 75 -17 378
-70 382 -67 1 2 -30 14 -70 26 -86 28 -152 60 -142 69 4 4 39 9 78 12 58 4 72
8 71 21 -1 15 4 15 55 -1 114 -35 283 -109 296 -130 9 -15 -50 -12 -92 5 -44
19 -63 19 -63 1 0 -34 93 -68 410 -151 118 -30 242 -69 275 -85 46 -22 112
-38 290 -69 771 -137 1570 -211 2264 -211 268 0 892 32 956 49 30 8 29 9 -33
36 -34 15 -61 29 -60 30 2 2 94 13 205 26 172 19 206 21 230 9 l28 -13 -32
-13 c-17 -7 -67 -20 -110 -28 -78 -14 -78 -14 -26 -15 94 -2 302 54 388 104
30 17 63 25 133 30 145 12 123 -11 -75 -80 -46 -16 -81 -30 -79 -32 2 -2 56 6
120 18 63 13 111 26 106 29 -16 10 181 88 316 125 163 44 277 61 310 46 51
-23 76 -18 513 100 79 21 146 41 149 44 3 3 -31 5 -76 5 -44 0 -83 4 -86 9 -3
4 57 30 134 56 132 45 157 58 128 68 -7 2 9 7 35 11 166 25 563 148 856 265
84 34 251 106 370 160 443 201 581 272 756 386 188 123 240 155 493 304 94 57
172 103 172 104 0 2 -18 1 -40 -1 -45 -5 -47 -2 -24 33 13 20 153 125 167 125
3 0 7 -10 10 -21 5 -19 11 -21 45 -17 58 8 145 53 352 183 102 64 227 137 278
162 50 26 92 52 92 59 0 7 75 78 168 157 173 150 302 276 302 297 0 8 -9 10
-27 6 l-28 -7 25 21 c37 29 59 34 78 17 30 -28 83 8 240 163 81 80 289 281
462 447 400 382 636 634 826 879 128 164 124 158 85 149 -24 -5 -31 -3 -31 9
0 32 34 82 78 117 26 20 99 82 162 138 112 99 159 163 160 213 0 57 55 159
129 242 32 35 33 38 9 22 -23 -15 -28 -16 -28 -4 0 16 10 33 129 201 521 740
953 1706 1350 3017 109 362 342 1179 341 1198 -1 4 -8 -6 -16 -21 -9 -16 -17
-27 -19 -25 -3 2 1 44 9 92 10 69 10 85 0 72 -11 -16 -14 -15 -36 6 l-23 23
72 300 c40 165 72 314 71 330 -2 59 -1 383 2 560 3 151 1 186 -13 215 -16 35
-16 34 -11 -65 3 -68 1 -93 -5 -79 -28 64 -57 34 -147 -152 -74 -153 -114
-214 -140 -214 -13 0 -14 -12 -8 -68 9 -97 -9 -211 -72 -458 -93 -363 -135
-616 -120 -719 8 -48 -2 -85 -15 -63 -5 7 -9 25 -9 41 0 15 -4 27 -9 27 -5 0
-9 -44 -8 -97 0 -54 -6 -127 -12 -163 -17 -96 -72 -290 -80 -286 -4 3 -15 -32
-24 -77 -36 -170 -163 -571 -262 -827 -97 -250 -293 -697 -391 -892 l-45 -89
30 16 c17 8 33 15 36 15 10 0 -71 -145 -116 -210 -40 -57 -52 -107 -24 -96 17
6 -2 -33 -167 -344 -174 -328 -321 -551 -406 -618 -67 -53 -111 -142 -62 -127
11 4 20 2 20 -4 0 -22 -55 -99 -86 -120 -27 -19 -33 -31 -39 -73 -8 -58 -57
-125 -143 -195 -77 -63 -89 -56 -40 25 23 37 51 77 62 89 11 13 15 23 10 23
-16 -1 -151 -179 -266 -350 -61 -91 -129 -190 -151 -220 l-40 -55 49 45 48 45
-29 -40 c-165 -229 -424 -541 -684 -825 -68 -74 -306 -316 -528 -538 -221
-222 -403 -405 -403 -408 0 -3 10 -3 23 1 15 4 1 -14 -43 -57 -106 -103 -206
-179 -437 -336 -236 -160 -369 -258 -477 -352 -94 -81 -241 -181 -258 -175 -8
3 -52 -8 -98 -25 -85 -31 -103 -32 -79 -4 7 9 -54 -32 -136 -91 -108 -77 -185
-143 -276 -235 -128 -129 -145 -140 -220 -140 -20 0 -46 -16 -91 -56 -68 -61
-140 -112 -229 -162 -48 -27 -57 -30 -55 -15 1 16 -6 18 -51 15 -64 -5 -68 8
-13 44 22 15 40 28 40 30 0 9 -223 -71 -350 -126 -41 -18 -196 -90 -345 -160
-293 -139 -345 -157 -478 -167 -78 -5 -90 -9 -107 -31 -41 -51 1 -55 151 -13
57 16 150 46 206 66 116 42 160 41 108 -1 -42 -35 -211 -117 -326 -158 -142
-51 -228 -66 -383 -66 -149 0 -305 -14 -411 -36 -38 -8 -101 -17 -139 -20 -72
-5 -129 -18 -334 -78 -77 -22 -156 -38 -210 -42 -61 -4 -102 -13 -137 -30 -27
-13 -92 -33 -144 -44 -115 -25 -178 -56 -157 -77 3 -3 80 11 171 32 92 20 169
35 171 33 9 -10 -368 -130 -461 -147 -117 -23 -320 -45 -356 -39 -16 3 15 17
101 45 143 47 127 54 -51 23 -63 -11 -141 -20 -174 -19 l-60 0 35 18 c46 24
100 35 380 76 228 34 383 68 451 100 l34 15 -55 -5 c-30 -3 -109 -18 -175 -34
-195 -47 -240 -50 -202 -12 6 7 -18 -2 -55 -19 -88 -41 -186 -57 -421 -70
-169 -9 -332 -32 -390 -55 -16 -7 -17 -4 -11 20 6 23 4 26 -12 21 -38 -11
-206 -37 -222 -34 -9 2 18 17 61 32 42 16 76 30 75 31 -2 2 -25 -1 -53 -5 -77
-13 -255 -11 -410 5 -77 7 -194 16 -260 19 l-120 5 149 -14 c148 -14 182 -23
158 -47 -18 -18 -15 -26 14 -41 25 -13 21 -14 -67 -21 -52 -4 -148 -2 -213 4
-103 9 -143 18 -295 69 -177 60 -298 86 -446 96 l-80 5 87 -19 c101 -22 118
-30 95 -43 -29 -16 -308 37 -434 82 -57 21 -283 42 -283 26 0 -4 27 -18 60
-33 33 -14 60 -30 60 -34 0 -14 -44 -10 -86 7 -60 25 -136 32 -268 23 -67 -4
-141 -5 -164 -2 -39 5 -43 8 -39 29 5 27 9 26 -132 54 -163 32 -201 34 -245
16 -21 -9 -62 -16 -90 -16 -47 0 -230 41 -243 54 -4 3 20 6 53 7 32 1 86 4
119 8 l60 6 -142 24 c-79 13 -143 25 -143 27 0 2 14 11 31 19 17 9 29 18 27
21 -3 2 -58 13 -124 24 -188 32 -326 72 -520 148 -50 20 -52 20 -47 2 10 -39
-93 -38 -243 1 -98 26 -154 54 -154 78 0 14 -22 27 -92 54 -82 32 -89 36 -56
37 64 0 140 -21 218 -60 71 -37 78 -38 135 -31 l60 7 -60 28 c-127 59 -484
190 -493 181 -3 -3 -1 -5 4 -5 6 0 19 -7 30 -15 12 -9 -32 -1 -116 21 -183 48
-391 112 -407 126 -24 19 -14 29 25 23 20 -3 -26 16 -103 43 -77 26 -149 52
-159 59 -18 10 -18 11 4 23 15 8 49 11 99 8 42 -3 69 -3 61 0 -8 2 -100 38
-205 79 -183 72 -193 77 -278 149 -48 41 -85 79 -83 83 8 12 -137 94 -291 165
-175 80 -325 155 -428 214 -104 59 -255 162 -255 173 0 5 -8 9 -17 9 -46 0
-237 138 -443 321 -126 112 -370 307 -496 397 -87 61 -94 70 -159 178 -47 78
-81 122 -107 140 -21 15 -41 24 -45 21 -3 -4 2 -26 11 -50 9 -23 16 -51 16
-60 0 -16 -2 -16 -29 -2 -41 21 -167 122 -251 201 -76 72 -94 107 -65 128 33
24 11 58 -77 121 -241 171 -373 292 -494 455 -93 125 -99 140 -22 56 156 -172
156 -172 86 -61 -82 128 -80 125 -74 125 3 0 53 -42 112 -93 168 -147 206
-178 211 -173 2 2 -5 27 -18 55 -16 38 -27 51 -43 51 -72 0 -223 146 -483 465
-162 200 -282 323 -323 331 -26 6 -36 17 -61 65 -36 71 -36 83 -3 44 24 -28
24 -25 -6 32 -44 84 -88 133 -179 200 -104 76 -125 96 -190 183 -88 117 -185
315 -162 330 5 3 -24 53 -66 110 -117 161 -143 201 -143 217 0 8 5 11 11 7 7
-4 7 2 -1 17 -14 27 -200 370 -207 381 -2 4 3 5 11 2 9 -3 16 -1 16 4 0 6 -9
14 -20 17 -34 11 -240 287 -240 322 0 12 6 8 21 -16 11 -18 22 -31 25 -28 3 2
-31 65 -76 138 -44 74 -80 142 -80 152 0 54 57 -19 147 -190 l63 -118 0 56 c0
76 -24 151 -75 234 -64 105 -114 209 -151 315 -19 52 -34 84 -34 71 0 -20 -2
-22 -16 -11 -40 34 -91 172 -92 250 0 30 -54 197 -94 290 -33 78 -40 108 -42
170 -2 53 -14 110 -40 195 -20 66 -39 128 -42 138 -4 14 1 17 30 17 20 0 36 2
36 4 0 20 -77 177 -118 239 -60 92 -75 151 -76 292 0 84 3 108 23 152 22 49
22 55 9 113 -7 34 -17 61 -23 61 -5 0 -15 -23 -21 -51 -12 -56 -18 -65 -33
-56 -15 10 -47 170 -76 381 -14 105 -53 323 -86 486 -47 230 -59 312 -57 365
l3 69 18 -38 c36 -78 34 -22 -4 90 -43 129 -46 143 -25 143 22 0 0 68 -34 106
-26 30 -50 117 -50 182 0 11 -5 24 -11 28 -17 10 -5 231 20 375 35 206 44 317
38 466 -4 78 -3 144 1 147 5 3 16 -8 26 -25 9 -16 21 -27 25 -24 5 2 7 44 5
92 -3 49 -11 242 -20 430 l-15 341 35 129 c19 70 39 141 45 156 17 44 12 46
-10 5 -40 -78 -58 -38 -70 155 -4 84 -9 179 -10 212 l-1 60 -44 -90 c-24 -49
-44 -85 -44 -79 0 27 22 227 36 329 20 142 34 159 53 63 l9 -43 1 43 c1 48 20
101 44 120 13 11 17 10 27 -8 6 -11 14 -43 17 -71 5 -44 2 -60 -27 -120 -19
-38 -37 -69 -42 -69 -4 0 -8 15 -9 33 0 17 -4 41 -9 52 -6 13 -9 -11 -9 -70 0
-78 1 -87 12 -67 12 21 14 18 26 -40 27 -131 80 -200 82 -105 1 48 10 79 24
78 6 0 10 29 10 66 l1 66 48 42 c42 36 47 44 38 62 -9 15 1 56 47 199 32 98
76 229 99 289 38 102 41 121 52 270 31 444 91 769 207 1139 46 145 47 147 58
115 11 -32 15 -34 69 -39 l56 -5 -25 -36 c-40 -55 -80 -163 -140 -377 -54
-192 -89 -313 -101 -349 -3 -10 3 -3 15 15 23 35 41 42 42 15 0 -10 17 50 38
132 21 83 57 218 81 302 35 127 46 152 63 155 13 2 40 39 87 123 58 104 64
120 49 123 -42 7 -6 147 93 367 28 61 72 159 99 220 27 60 53 111 59 113 17 6
11 -64 -10 -120 -11 -29 -38 -88 -60 -131 -22 -44 -40 -82 -40 -85 0 -4 18 18
40 48 54 76 86 159 114 303 28 138 45 192 82 254 28 49 38 56 23 17 -5 -15 -7
-29 -4 -32 3 -3 5 -3 5 0 0 3 7 22 16 43 11 28 12 35 2 30 -7 -3 -6 -1 3 7 9
7 42 59 74 115 63 111 152 234 174 241 9 3 11 0 6 -9 -5 -10 -5 -11 3 -4 5 6
70 102 144 215 74 113 229 345 345 516 239 353 297 446 329 524 l23 55 11 -30
c6 -16 14 -49 17 -73 6 -43 9 -37 128 259 67 167 150 366 185 442 l63 137 21
-19 c12 -11 41 -27 66 -37 63 -24 99 -51 106 -79 8 -33 -17 -103 -57 -162
l-33 -47 30 21 c34 25 206 201 282 290 l54 63 -36 -15 c-19 -8 -58 -15 -86
-15 -47 0 -51 2 -48 22 2 16 33 39 118 88 63 36 173 105 243 153 71 48 133 87
138 87 5 0 0 9 -11 20 -15 15 -19 28 -14 48 11 48 44 110 82 153 l38 42 28
-37 c15 -21 31 -49 35 -62 6 -23 13 -15 81 83 107 156 178 245 185 233 28 -45
148 -28 210 29 45 42 143 115 293 220 56 40 102 74 102 77 0 2 -24 -7 -52 -21
l-53 -26 35 28 c80 63 200 187 311 320 123 147 233 250 340 316 56 35 60 36
53 15 -12 -33 -9 -75 7 -94 10 -12 25 -15 69 -11 101 8 119 23 219 171 50 73
124 171 164 217 128 146 310 313 422 388 94 63 111 71 153 71 38 0 63 9 127
46 127 73 225 126 225 121 0 -5 -264 -248 -401 -368 -52 -46 -160 -144 -240
-218 -79 -74 -176 -161 -216 -195 -39 -34 -71 -62 -70 -63 9 -8 205 56 267 87
44 22 85 40 91 40 22 0 -23 -40 -98 -87 -40 -26 -71 -48 -69 -50 1 -2 81 34
177 80 96 46 227 105 292 132 64 26 117 53 117 60 0 27 120 114 275 200 102
56 155 94 155 111 0 19 -149 -59 -467 -242 -119 -69 -218 -123 -221 -120 -13
13 57 103 125 161 164 140 382 268 611 359 133 53 149 41 87 -70 -19 -34 -35
-65 -35 -68 0 -3 42 16 93 44 90 48 292 130 352 144 17 4 -9 -15 -60 -44 -49
-27 -85 -50 -79 -50 29 0 165 55 299 123 83 41 182 85 220 97 92 28 333 60
463 60 57 0 113 5 124 11 19 10 15 13 -37 35 -68 27 -127 81 -160 145 -35 68
-38 147 -7 187 17 22 31 25 223 43 114 10 290 19 400 19 270 0 281 -11 132
-125 -43 -34 -79 -68 -81 -77 -4 -21 51 -48 97 -47 l36 1 -39 9 c-22 5 -42 11
-44 14 -2 2 23 17 57 34 67 35 125 40 139 14 8 -13 20 -15 69 -10 59 6 81 13
134 42 15 8 62 20 105 26 44 6 95 14 114 19 30 7 25 8 -35 10 -151 4 48 30
348 46 104 5 127 9 123 20 -13 33 70 80 247 143 113 39 290 77 295 61 2 -6 21
-19 42 -30 33 -17 61 -19 266 -19 350 -1 1050 -55 1189 -93 92 -24 143 -47
127 -57 -5 -3 54 -5 131 -3 127 3 147 1 187 -17 l45 -21 -127 6 c-132 7 -151
1 -107 -30 16 -10 28 -12 46 -5 33 12 295 11 467 -2 76 -5 141 -8 144 -5 9 10
-81 44 -163 61 -56 12 -153 19 -323 22 -170 4 -242 9 -239 17 7 21 82 54 157
70 151 31 346 40 558 27 225 -14 324 -25 402 -47 67 -19 84 -32 69 -50 -12
-14 2 -19 156 -53 148 -32 348 -59 560 -76 110 -8 236 -24 281 -35 79 -18 248
-81 325 -120 49 -26 109 -78 109 -96 0 -7 -17 -23 -37 -34 -21 -11 -45 -25
-54 -32 -19 -13 -153 30 -361 117 -141 60 -299 118 -304 112 -2 -2 41 -21 96
-42 56 -21 99 -39 97 -41 -5 -6 -239 44 -307 65 -35 11 -66 19 -68 17 -5 -6
148 -59 318 -111 462 -142 991 -345 1301 -500 126 -63 195 -92 274 -112 58
-14 108 -24 111 -20 13 13 -10 27 -101 63 -90 36 -125 57 -112 70 3 3 52 -6
108 -20 98 -25 131 -26 99 -5 -30 20 46 -4 220 -68 270 -100 365 -146 568
-274 12 -8 25 -23 28 -34 18 -65 19 -62 -7 -39 -42 37 -218 149 -184 117 25
-24 336 -244 391 -276 60 -36 135 -68 158 -67 6 1 -29 39 -79 86 -105 99 -119
101 185 -37 223 -102 318 -155 443 -246 81 -58 87 -61 70 -32 -10 17 -44 51
-75 76 -32 24 -58 47 -58 51 -1 4 -17 25 -36 47 -19 22 -32 32 -29 22 16 -40
-59 -3 -283 140 -166 106 -239 146 -255 136 -4 -2 -29 15 -55 39 -26 24 -117
92 -202 150 -85 59 -183 130 -218 158 -67 54 -74 58 -66 35 4 -8 3 -15 0 -15
-14 0 -166 81 -166 89 0 10 -51 34 -58 27 -3 -3 3 -9 13 -13 17 -6 17 -7 1
-12 -13 -5 -6 -15 36 -46 68 -52 47 -55 -73 -11 -208 76 -556 208 -584 221
l-30 14 33 0 c29 1 42 13 25 24 -5 3 -55 15 -113 28 -60 13 -111 30 -120 39
-8 9 -48 43 -87 74 -40 31 -73 59 -73 63 0 5 46 0 100 -13 14 -3 -40 22 -120
55 -80 33 -161 69 -180 80 -152 84 -560 219 -774 255 -45 8 -141 28 -213 45
-73 17 -190 40 -260 52 -71 11 -141 27 -157 35 -51 25 -260 63 -561 104 -161
21 -328 42 -371 46 -52 5 -70 10 -54 14 38 9 18 16 -146 49 -192 40 -218 38
-79 -4 61 -19 100 -34 87 -34 -46 -2 -560 84 -571 95 -2 2 33 1 78 -1 44 -3
118 -7 164 -9 l82 -4 -55 14 c-85 21 -259 36 -325 28 -44 -5 -55 -9 -40 -15
25 -10 -72 -10 -378 0 -221 7 -239 9 -266 29 -28 21 -42 22 -383 28 -247 4
-368 2 -403 -6 -63 -14 -59 -14 -125 -2 -80 15 -207 19 -355 11z"/>
<path d="M22840 26353 c0 -153 -78 -423 -282 -978 -266 -722 -343 -965 -355
-1106 -5 -69 -4 -78 16 -98 18 -18 33 -21 99 -21 43 0 121 7 173 16 112 19
461 107 644 162 72 22 131 39 133 37 1 -1 -20 -85 -48 -186 -62 -227 -125
-506 -140 -618 -14 -105 -8 -149 23 -156 64 -16 447 79 887 220 501 161 905
382 1124 615 80 85 111 145 101 197 -10 56 -91 125 -190 163 -23 9 -27 5 -60
-59 -40 -77 -119 -170 -227 -266 -205 -185 -567 -371 -993 -508 -163 -53 -242
-70 -305 -65 l-45 3 1 90 c1 96 21 210 85 475 l40 165 62 24 c222 85 538 237
680 328 128 82 217 183 217 245 0 38 -37 86 -92 121 -53 33 -109 60 -113 55
-1 -2 -17 -30 -35 -63 -74 -133 -237 -261 -500 -395 l-140 -71 19 48 c192 490
269 816 212 909 -33 54 -135 87 -211 67 l-35 -10 3 -74 c7 -158 -47 -405 -173
-789 l-75 -226 -192 -62 c-324 -104 -522 -145 -582 -122 -28 10 -28 12 -22 61
16 121 109 386 361 1030 215 548 249 660 224 736 -30 94 -90 134 -211 141
l-78 5 0 -40z"/>
<path d="M6585 26039 c-300 -60 -599 -255 -809 -528 -226 -294 -296 -693 -181
-1031 97 -285 326 -550 590 -682 408 -205 906 -106 1264 251 233 234 346 494
358 826 6 170 -12 284 -68 438 -98 272 -336 538 -583 653 -131 60 -205 76
-371 80 -82 1 -172 -2 -200 -7z m272 -295 c232 -52 460 -251 593 -519 73 -147
93 -244 88 -420 -6 -161 -28 -244 -101 -375 -54 -97 -213 -258 -318 -323 -305
-189 -646 -165 -934 67 -155 124 -294 325 -350 506 -26 85 -32 288 -10 386 35
158 115 294 252 425 243 232 502 316 780 253z"/>
<path d="M16684 24649 c-301 -14 -469 -52 -809 -179 -422 -158 -832 -349 -980
-455 -44 -32 -186 -129 -315 -215 -416 -279 -543 -384 -747 -617 -571 -651
-807 -1097 -972 -1843 -43 -192 -57 -290 -86 -590 -26 -275 -39 -350 -60 -350
-7 0 -48 37 -92 83 -66 68 -85 96 -112 162 -47 114 -108 226 -220 399 -130
202 -175 276 -261 436 -102 189 -139 241 -255 356 -224 221 -506 399 -721 454
-180 46 -487 64 -684 40 -283 -35 -607 -146 -790 -270 -214 -145 -519 -466
-687 -722 -140 -213 -286 -569 -333 -813 -84 -437 -18 -1069 145 -1391 25 -51
102 -166 180 -269 167 -222 197 -280 203 -390 2 -44 -8 -294 -23 -555 -15
-261 -27 -563 -28 -670 -1 -172 2 -205 21 -275 40 -144 98 -197 227 -203 97
-5 147 14 410 154 222 118 436 224 453 224 5 0 14 -71 21 -157 17 -215 -2
-326 -75 -437 -40 -59 -377 -439 -409 -460 -32 -21 -91 -30 -350 -51 -226 -19
-315 -36 -579 -110 -237 -66 -304 -97 -398 -184 -151 -140 -466 -480 -521
-562 -94 -142 -232 -477 -267 -650 -69 -337 -7 -746 166 -1092 90 -182 198
-335 440 -628 219 -265 312 -429 405 -713 115 -351 451 -945 784 -1386 155
-205 230 -337 299 -525 152 -413 318 -724 522 -975 163 -201 389 -514 524
-725 118 -185 207 -306 315 -425 152 -168 203 -268 260 -504 76 -316 390
-1298 481 -1503 41 -94 128 -214 216 -298 45 -45 214 -209 373 -365 193 -190
309 -296 348 -319 32 -19 120 -53 195 -76 75 -24 205 -64 287 -90 241 -75 506
-138 1040 -245 275 -55 592 -121 705 -146 196 -44 381 -68 788 -105 162 -14
298 8 413 66 100 52 772 449 880 520 178 118 318 266 374 396 8 19 132 215
277 436 504 771 553 849 618 978 94 186 122 274 128 410 5 123 -11 231 -54
361 -13 42 -166 383 -338 758 -173 375 -323 710 -334 746 -36 112 -41 175 -46
535 -6 465 -26 639 -108 945 -39 143 -42 165 -42 285 -1 81 4 151 13 185 16
63 186 547 319 910 100 275 150 441 187 621 14 68 32 133 40 145 22 33 70 37
322 24 313 -17 966 10 1113 45 133 32 411 119 608 191 378 138 1236 466 1318
504 123 57 338 183 589 346 125 80 264 166 309 190 151 79 552 252 682 293 71
22 143 51 160 63 72 53 318 287 345 328 16 24 37 69 46 100 17 57 15 141 -7
405 -20 247 -8 546 36 905 46 370 43 597 -12 870 -56 280 -224 783 -566 1694
-301 803 -347 1005 -463 2029 -30 269 -38 320 -69 410 -45 134 -98 247 -180
381 -76 126 -79 136 -101 311 -46 368 -173 1028 -231 1202 -19 59 -56 150 -81
201 -46 95 -63 115 -226 268 -64 61 -76 81 -155 255 -57 126 -133 185 -279
214 -43 9 -123 36 -178 59 -216 93 -585 256 -680 301 -210 99 -361 146 -542
170 -146 20 -220 18 -332 -5 -110 -23 -191 -25 -281 -5 -122 27 -234 14 -323
-38 -72 -42 -91 -42 -228 2 -232 73 -865 192 -1184 221 -123 11 -539 11 -771
-1z m781 -79 c477 -40 1126 -178 1291 -275 49 -29 94 -96 94 -141 0 -16 -9
-55 -20 -87 -12 -34 -18 -68 -14 -82 3 -14 39 -55 80 -91 41 -37 74 -74 74
-84 0 -10 -13 -44 -30 -75 -32 -61 -38 -113 -20 -174 5 -19 8 -36 6 -38 -2 -2
-43 -15 -92 -28 -113 -31 -176 -32 -229 -2 -51 29 -99 105 -101 161 -2 80 -15
127 -40 138 -35 16 -72 1 -130 -54 l-54 -51 0 -71 c1 -101 20 -136 134 -242
81 -74 103 -102 136 -168 22 -43 40 -87 40 -97 0 -10 -9 -41 -20 -69 -12 -29
-20 -74 -20 -106 0 -59 -31 -133 -84 -199 l-24 -29 -42 29 c-48 34 -70 61 -70
90 0 11 23 51 50 89 105 144 81 172 -158 187 -80 5 -175 16 -211 25 -49 11
-91 13 -163 8 l-96 -6 -124 64 c-137 72 -189 88 -276 88 -81 0 -198 -53 -267
-120 -41 -41 -65 -55 -137 -78 -66 -23 -111 -47 -186 -101 -135 -97 -151 -102
-312 -108 -150 -6 -179 0 -241 54 -19 17 -45 36 -58 43 -35 18 -136 15 -167
-5 -34 -22 -64 -89 -64 -147 0 -40 4 -50 31 -72 17 -14 36 -26 42 -26 18 0 57
-42 57 -62 0 -10 -11 -41 -25 -68 -29 -57 -31 -85 -9 -139 13 -32 15 -72 12
-203 l-3 -163 -42 -71 c-29 -50 -52 -75 -73 -84 -75 -31 -345 -370 -450 -565
-58 -108 -126 -207 -213 -312 -40 -49 -117 -143 -170 -211 -111 -139 -153
-170 -187 -136 -11 11 -23 45 -29 84 -15 89 -14 838 1 1113 6 122 12 290 12
374 1 148 0 152 -24 178 -80 87 -199 68 -294 -48 -20 -25 -48 -52 -61 -61 -23
-15 -24 -14 -54 33 -17 26 -43 80 -58 120 -22 59 -30 72 -52 77 -75 15 -102
27 -129 59 -45 50 -73 121 -79 195 -5 56 -11 70 -39 103 -19 20 -34 47 -34 60
0 37 -28 122 -50 150 l-20 25 116 103 c181 162 285 241 399 303 102 56 106 59
116 102 14 55 87 125 167 160 92 40 114 54 176 111 77 71 100 85 355 216 198
102 221 111 271 111 49 0 66 -6 150 -56 52 -31 104 -63 114 -71 19 -14 19 -15
-11 -30 -49 -26 -83 -73 -83 -115 0 -75 -77 -142 -162 -142 -29 0 -52 -6 -62
-16 -19 -19 -20 -25 -3 -49 23 -31 88 -13 184 52 124 83 154 116 201 218 34
73 44 108 51 182 9 87 37 167 65 185 6 4 33 8 60 8 27 0 73 7 102 17 50 15 55
15 99 -1 l46 -18 36 36 c56 55 95 65 348 85 262 21 574 26 750 11z m2150 -430
c55 -16 145 -45 200 -64 70 -25 158 -44 290 -65 275 -43 401 -78 577 -162 146
-69 267 -106 296 -90 17 10 -10 31 -225 176 l-148 100 61 3 c50 2 76 -3 140
-28 222 -88 391 -217 450 -343 l24 -52 -23 -4 c-12 -1 -57 5 -100 15 -91 20
-126 13 -141 -28 -8 -22 1 -48 53 -165 84 -186 104 -217 156 -253 25 -17 45
-39 45 -49 0 -9 -24 -38 -54 -64 -67 -58 -101 -122 -91 -175 10 -53 58 -140
153 -272 55 -77 115 -181 182 -315 117 -236 178 -318 331 -451 173 -151 252
-241 297 -336 51 -108 55 -124 102 -475 90 -663 94 -684 217 -1153 105 -405
196 -726 367 -1304 172 -578 207 -700 250 -871 89 -358 137 -721 171 -1295 33
-559 73 -994 110 -1200 46 -260 45 -306 -8 -367 -53 -60 -70 -63 -331 -63
-324 0 -338 -5 -553 -188 -126 -107 -259 -196 -409 -272 -212 -108 -234 -122
-234 -145 0 -27 20 -45 87 -79 59 -29 67 -39 59 -69 -19 -78 -211 -177 -411
-212 -44 -7 -194 -17 -332 -21 -302 -8 -297 -7 -337 -113 -20 -50 -34 -72 -49
-77 -12 -4 -110 -7 -217 -7 -162 0 -212 3 -297 21 -127 28 -167 28 -193 2 -26
-26 -25 -51 2 -128 36 -99 21 -110 -162 -111 -128 -1 -210 14 -292 54 -95 46
-218 95 -240 95 -12 0 -41 -9 -65 -21 l-43 -21 -34 26 c-44 33 -62 84 -47 128
6 18 66 132 132 255 133 246 158 316 124 353 -10 11 -24 20 -32 20 -7 0 -57
-22 -111 -49 -110 -55 -229 -99 -376 -139 -85 -23 -120 -27 -226 -26 -70 0
-164 8 -215 17 -49 9 -158 23 -241 31 -178 18 -252 41 -347 109 -71 51 -124
108 -165 176 -30 52 -32 92 -16 287 19 222 58 256 534 459 256 109 399 182
482 244 36 27 118 106 183 175 151 161 162 166 326 166 68 0 131 -4 139 -10
27 -17 -1 -122 -75 -279 -57 -121 -67 -148 -59 -170 5 -14 14 -26 19 -26 6 0
79 20 163 44 169 48 200 48 252 5 17 -15 37 -23 45 -20 9 3 100 68 203 144
350 259 365 267 487 267 86 0 99 -3 285 -68 121 -42 214 -81 246 -103 28 -19
55 -34 60 -34 11 0 99 140 138 217 33 67 73 204 82 282 6 54 9 60 22 49 9 -7
106 -134 217 -283 190 -254 435 -538 487 -566 18 -10 24 -8 35 7 25 32 9 85
-86 287 -232 495 -257 599 -376 1532 l-57 440 7 955 6 955 -35 465 c-20 256
-40 520 -46 587 -10 129 -5 164 27 181 10 5 56 15 103 21 159 21 286 82 273
131 -8 30 -43 45 -199 86 -76 20 -161 46 -189 59 -80 35 -167 107 -223 181
-57 77 -202 325 -202 347 0 17 28 42 57 51 26 8 73 44 73 57 0 5 -28 40 -62
77 -121 132 -282 395 -352 577 -47 123 -66 224 -66 352 0 82 -7 140 -29 239
-32 144 -62 214 -120 277 -50 55 -61 77 -67 140 -6 64 -37 118 -116 202 -103
111 -227 181 -388 220 -41 10 -133 41 -205 70 -71 29 -256 90 -410 135 -154
45 -298 92 -320 104 -21 11 -50 36 -62 55 -22 33 -23 35 -6 45 10 6 68 11 128
11 l110 -1 325 -111 c372 -126 383 -129 700 -178 410 -63 431 -70 553 -170 34
-28 73 -59 87 -68 26 -18 90 -24 90 -8 0 5 -78 73 -172 150 -231 190 -276 211
-693 336 -331 99 -555 175 -555 188 0 11 7 9 115 -23z m-250 -550 c265 -102
338 -136 449 -209 72 -47 158 -83 279 -116 31 -8 57 -19 57 -23 0 -4 -27 -40
-60 -79 -51 -61 -65 -73 -91 -73 -34 0 -89 26 -169 80 -82 56 -200 113 -419
201 -253 104 -332 142 -375 182 -44 42 -54 78 -31 113 15 24 22 26 68 22 33
-3 141 -39 292 -98z m-5267 -1034 c32 -23 52 -45 52 -57 0 -27 -32 -87 -139
-264 -96 -158 -134 -250 -146 -360 -13 -118 -28 -206 -37 -211 -5 -3 -34 12
-65 33 -47 32 -63 38 -109 38 -48 0 -57 -4 -93 -39 -90 -87 -161 -281 -183
-495 -16 -158 0 -299 68 -603 30 -136 77 -357 105 -490 48 -232 50 -249 46
-363 -3 -66 -15 -169 -27 -230 -28 -135 -24 -235 14 -343 79 -228 134 -677 91
-739 -18 -26 -175 -130 -209 -139 -45 -11 -64 13 -146 176 -176 351 -195 403
-290 780 -87 346 -104 431 -130 660 -12 102 -26 205 -31 230 -17 79 -23 467
-10 621 22 266 54 447 127 724 55 212 78 258 157 326 126 109 190 176 227 239
42 71 78 109 127 134 24 12 35 27 43 58 7 22 24 54 40 70 42 41 82 38 149 -12
63 -47 97 -51 141 -14 51 44 61 73 54 166 -5 80 -4 85 26 136 l31 53 32 -23
c18 -13 56 -41 85 -62z m3692 -186 c10 -10 28 -37 39 -59 12 -22 41 -56 65
-77 54 -45 81 -102 81 -169 0 -50 -25 -98 -95 -185 -20 -24 -20 -27 -3 -102
13 -63 14 -80 4 -92 -28 -34 -145 -47 -208 -24 -29 11 -51 8 -166 -20 -72 -18
-141 -32 -153 -32 -25 0 -45 21 -74 80 -12 25 -43 68 -69 95 l-46 50 52 3 c47
3 54 6 59 29 4 14 4 54 1 89 -6 60 -5 64 12 54 10 -5 38 -53 61 -107 67 -154
71 -163 92 -174 61 -32 178 117 178 226 0 25 11 43 49 81 46 47 71 98 71 149
0 11 -7 51 -15 90 -12 61 -12 72 1 92 18 28 38 29 64 3z m-3127 -61 c3 -12
-12 -89 -33 -173 -42 -165 -55 -271 -67 -536 -14 -305 -11 -369 25 -515 38
-158 57 -271 77 -478 9 -86 18 -164 21 -172 8 -20 43 -19 79 4 53 33 278 226
335 288 60 64 223 274 287 369 22 32 65 104 95 160 68 125 383 537 407 532 12
-3 16 -16 16 -58 -1 -93 -126 -396 -387 -935 -199 -411 -226 -460 -333 -604
-40 -55 -83 -117 -94 -138 -38 -76 -49 -232 -14 -219 8 3 19 6 25 6 5 0 35 28
67 61 46 50 61 60 79 55 40 -13 45 -60 27 -254 -26 -287 -54 -531 -71 -616
-21 -104 -83 -283 -139 -401 -49 -102 -78 -132 -175 -184 -91 -49 -145 -103
-187 -189 -21 -42 -53 -103 -71 -135 -42 -73 -39 -96 15 -122 24 -12 42 -27
43 -37 0 -27 -59 -187 -100 -268 -44 -88 -104 -171 -187 -261 -32 -35 -81 -93
-108 -129 -27 -36 -117 -144 -200 -240 -83 -96 -217 -256 -299 -355 -222 -271
-356 -413 -751 -793 -555 -535 -828 -782 -973 -880 -58 -40 -162 -96 -162 -88
0 2 16 42 35 87 19 45 33 85 30 87 -2 2 -20 1 -40 -2 -37 -7 -71 -37 -163
-144 -77 -90 -156 -126 -330 -152 -197 -29 -357 -75 -427 -123 -45 -31 -291
-255 -369 -336 -74 -78 -113 -163 -165 -361 -47 -177 -71 -232 -117 -267 -18
-13 -140 -64 -271 -113 -131 -48 -272 -102 -313 -119 -189 -81 -395 -233 -564
-417 -102 -109 -158 -154 -194 -154 -38 0 -95 66 -130 153 -55 131 -63 209
-69 652 -9 631 20 851 146 1121 55 117 171 306 184 301 18 -6 20 -85 7 -303
-10 -160 -10 -224 0 -321 15 -138 14 -139 -62 -197 -67 -51 -84 -97 -98 -252
-12 -142 -4 -191 37 -212 44 -23 67 1 203 223 115 186 123 209 115 300 l-6 70
46 70 c86 131 88 146 89 575 2 354 3 379 23 437 53 159 204 300 309 291 l35
-3 -53 -77 c-29 -43 -77 -112 -105 -154 -54 -78 -64 -115 -40 -148 26 -36 59
-4 208 201 79 109 156 223 170 253 15 30 35 62 45 71 31 26 353 200 589 316
160 80 360 195 735 423 1210 736 1383 848 1742 1133 235 187 477 359 563 401
74 36 456 172 578 206 40 12 108 23 152 26 180 11 193 18 133 69 l-32 27 -141
-6 c-77 -3 -151 -7 -165 -8 -22 -3 -32 11 -97 132 -90 166 -121 200 -179 200
-58 0 -80 -29 -90 -118 -7 -74 -32 -148 -45 -135 -4 4 -40 136 -78 292 -74
295 -85 377 -60 464 22 79 51 33 113 -179 54 -186 73 -219 102 -180 8 11 14
31 14 44 0 29 -69 268 -111 389 -57 159 -89 274 -134 489 -25 117 -58 274 -75
348 -33 148 -38 229 -16 279 7 18 34 63 60 100 25 38 46 77 46 88 0 31 -41 65
-109 89 -63 23 -101 58 -101 91 0 10 10 44 21 75 22 57 22 61 2 211 -4 35 0
51 29 97 18 31 37 54 42 53 24 -8 48 -59 57 -123 15 -108 34 -163 89 -253 65
-106 86 -172 99 -300 18 -170 20 -161 -44 -161 -55 0 -55 0 -49 -27 9 -39 23
-63 55 -101 68 -78 89 -158 89 -341 0 -91 4 -132 14 -146 13 -18 15 -17 60 5
67 32 101 86 101 159 -1 49 -8 69 -60 166 l-59 110 -8 195 c-4 107 -11 245
-16 306 -6 65 -6 160 -1 230 13 180 78 742 90 785 14 44 64 109 85 109 24 0
41 -58 52 -180 19 -200 23 -418 13 -650 -11 -260 -4 -344 40 -470 16 -47 39
-121 51 -164 l21 -79 27 30 c20 22 29 45 34 89 9 90 43 542 71 943 26 394 28
401 98 499 19 26 51 76 72 111 40 67 91 131 105 131 4 0 10 -9 13 -21z m1804
-228 c57 -41 73 -68 73 -122 0 -25 9 -71 19 -103 33 -93 102 -387 99 -414 -5
-43 -59 -72 -134 -72 -57 0 -162 16 -173 26 -3 3 15 25 39 49 l44 45 -17 47
c-13 38 -16 77 -13 193 2 110 -1 154 -12 183 -22 56 -3 197 26 197 5 0 27 -13
49 -29z m-206 -522 c7 -14 9 -46 4 -95 -10 -112 3 -126 140 -143 42 -5 83 -15
91 -22 14 -12 14 -14 -2 -26 -10 -7 -35 -13 -56 -13 -21 0 -55 -6 -75 -14 -21
-8 -67 -17 -103 -19 -101 -8 -113 -43 -34 -98 67 -46 111 -96 128 -147 20 -56
22 -252 4 -270 -20 -20 -57 -14 -141 24 -76 35 -89 37 -226 45 -80 4 -159 8
-175 8 -26 1 -28 3 -21 28 10 41 172 499 194 548 27 61 93 129 170 175 76 46
86 48 102 19z m-4680 -27 c134 -25 264 -60 309 -83 53 -26 86 -66 125 -154 59
-132 76 -161 149 -247 94 -113 143 -190 227 -359 39 -79 91 -172 115 -205 24
-34 50 -79 58 -100 14 -37 47 -225 46 -262 -1 -11 -23 6 -63 49 -72 77 -105
98 -118 78 -5 -8 -9 -20 -9 -27 0 -30 210 -423 301 -563 111 -170 167 -278
204 -396 34 -109 123 -438 134 -495 l8 -46 -61 -11 c-34 -6 -80 -13 -103 -17
l-43 -7 0 42 c0 111 -83 188 -238 221 -63 14 -137 -4 -258 -61 -195 -92 -294
-248 -281 -442 8 -121 41 -153 123 -122 24 9 49 15 55 13 29 -10 -311 -364
-471 -491 -296 -236 -493 -327 -711 -327 -163 0 -252 38 -395 168 -41 37 -114
90 -163 117 -77 43 -102 64 -181 155 -91 103 -178 229 -273 392 -26 46 -86
137 -132 202 -104 145 -111 169 -97 296 13 112 0 208 -41 305 -14 33 -107 204
-206 379 -191 338 -202 366 -181 447 38 141 190 478 278 614 158 246 433 523
702 707 205 140 356 203 580 244 111 20 472 11 611 -14z m7715 -653 c32 -17
75 -40 95 -50 20 -11 62 -24 95 -29 66 -11 92 -33 71 -58 -20 -25 -150 -81
-239 -102 -63 -15 -118 -20 -233 -20 -180 0 -201 -8 -291 -98 -34 -34 -66 -62
-72 -62 -19 0 -52 42 -62 79 -18 66 -11 141 21 238 35 106 33 105 136 78 70
-19 118 -14 239 25 119 38 166 38 240 -1z m-1761 -169 c14 -15 19 -37 19 -80
1 -85 34 -115 148 -134 25 -5 45 -17 63 -39 60 -75 115 -147 115 -152 0 -3
-21 -5 -47 -5 -69 0 -127 32 -183 104 -27 33 -82 94 -123 134 -75 72 -87 96
-87 163 0 27 3 29 38 29 26 0 45 -7 57 -20z m-414 -142 c41 -44 58 -78 69
-139 15 -79 38 -102 156 -158 147 -71 222 -144 239 -232 l6 -34 -84 -28 c-126
-41 -164 -79 -119 -120 17 -16 270 -117 291 -117 21 0 42 33 36 57 -9 39 14
102 54 146 21 23 52 63 70 89 51 76 98 73 138 -7 9 -16 38 -61 66 -99 28 -37
62 -91 77 -120 33 -64 65 -79 115 -52 55 30 175 148 175 173 0 11 -13 50 -30
85 -34 72 -37 101 -14 158 16 40 17 40 70 40 64 0 69 -7 76 -102 13 -166 119
-236 373 -245 165 -6 201 3 270 68 60 57 100 66 111 24 11 -45 -36 -330 -62
-374 -39 -66 -154 -109 -319 -118 -134 -7 -165 -19 -205 -84 -28 -45 -33 -49
-69 -49 -56 0 -88 15 -142 65 -55 52 -117 73 -236 82 -68 5 -87 3 -108 -11
-38 -25 -55 -74 -62 -182 l-6 -95 -41 6 c-76 12 -197 45 -222 62 -30 19 -49
54 -58 105 -14 75 -68 96 -304 114 -120 10 -118 6 -102 157 14 144 8 177 -39
197 -22 9 -41 8 -89 -4 -69 -18 -199 -21 -257 -5 -22 6 -69 24 -105 39 -36 16
-96 34 -133 41 -86 16 -119 2 -176 -74 -47 -65 -81 -93 -121 -102 -32 -7 -326
58 -374 82 l-28 15 30 19 c17 10 43 37 57 59 32 50 75 78 135 85 77 10 104 28
136 89 23 45 34 56 54 56 31 1 97 30 154 69 47 33 56 51 76 156 7 33 17 66 22
72 6 7 41 22 79 33 47 14 74 29 86 46 46 64 47 65 128 79 118 19 123 19 156
-17z m-1428 -514 c84 -43 219 -129 227 -145 17 -31 12 -49 -14 -49 -66 0 -115
-39 -158 -125 -49 -98 -80 -122 -112 -89 -13 12 -16 39 -16 124 0 132 20 300
36 300 3 0 19 -7 37 -16z m4698 -324 c117 -66 145 -66 225 -5 57 45 114 60
129 35 3 -6 -16 -52 -44 -103 -79 -146 -50 -140 -250 -48 -96 44 -184 87 -197
96 -41 27 -25 75 24 75 13 0 64 -22 113 -50z m744 -22 c9 -50 -1 -798 -16
-1176 -6 -173 -16 -303 -29 -378 -11 -63 -29 -181 -39 -262 -11 -82 -29 -169
-39 -193 -21 -49 -200 -271 -381 -473 -131 -146 -332 -334 -496 -462 -143
-112 -417 -293 -575 -381 -148 -82 -160 -87 -160 -69 0 24 42 67 129 131 161
118 151 106 148 188 -2 67 1 78 43 162 37 74 61 107 140 185 76 77 129 145
264 345 93 138 220 318 282 402 131 175 143 194 182 289 16 38 59 124 96 191
76 139 87 174 61 203 -23 25 -46 19 -100 -25 -79 -64 -128 -74 -145 -29 -27
70 -8 130 65 204 58 60 208 307 258 423 15 38 39 117 53 176 13 59 40 153 59
209 41 119 43 161 13 222 l-23 45 49 44 c52 46 97 70 133 71 17 0 23 -8 28
-42z m-1413 -1115 c133 -138 223 -256 242 -320 6 -20 4 -23 -19 -23 -47 0 -90
26 -141 86 -92 106 -164 238 -164 300 0 21 3 23 18 15 9 -5 38 -31 64 -58z
m-10055 -328 c21 -9 41 -21 45 -28 14 -22 8 -69 -18 -163 -32 -107 -28 -135
23 -179 93 -79 121 -114 137 -167 30 -103 83 -117 128 -33 15 28 37 82 49 120
33 108 86 139 115 69 14 -34 14 -40 -7 -90 l-23 -54 21 -50 21 -50 -51 -30
c-67 -38 -112 -53 -140 -46 -34 8 -184 121 -241 182 -104 109 -177 269 -201
441 -6 44 -4 54 14 72 25 25 76 27 128 6z m864 -573 c56 -51 145 -125 198
-164 136 -102 199 -157 261 -234 30 -37 99 -120 152 -185 54 -65 113 -139 133
-164 44 -58 46 -96 8 -123 -67 -46 -483 -262 -506 -262 -59 0 -264 285 -401
558 -69 137 -156 345 -156 372 0 11 27 50 60 85 38 41 74 93 96 140 20 42 40
75 44 73 4 -2 54 -45 111 -96z m10469 -441 c0 -316 28 -557 97 -836 29 -117
35 -165 40 -291 7 -183 0 -238 -33 -271 -25 -24 -28 -25 -117 -18 -188 14
-405 8 -562 -15 -173 -25 -183 -24 -418 31 -92 21 -181 39 -197 39 -16 0 -66
-9 -112 -20 -52 -13 -149 -24 -258 -30 -495 -29 -646 -67 -923 -237 -212 -129
-222 -134 -279 -140 -95 -9 -289 45 -327 91 -11 13 -9 20 18 45 25 24 57 35
180 65 262 64 671 210 896 321 158 78 668 366 842 476 302 190 569 420 870
753 198 218 265 286 275 280 4 -3 8 -112 8 -243z m-5973 150 c73 -57 118 -115
143 -182 22 -59 65 -107 98 -111 9 -1 82 -2 162 -3 l145 0 79 -37 c43 -21 103
-53 135 -72 142 -86 258 -86 460 -1 54 23 75 26 137 23 92 -4 117 -22 161
-111 56 -113 107 -137 292 -137 145 -1 199 -10 223 -41 24 -28 15 -39 -33 -39
-46 0 -106 -23 -125 -48 -18 -23 -17 -86 1 -122 9 -17 46 -50 83 -75 38 -24
87 -67 111 -95 l42 -50 62 0 c98 0 141 -35 153 -121 7 -53 -14 -107 -70 -176
-50 -62 -55 -112 -21 -194 15 -35 29 -78 32 -96 8 -53 -9 -56 -255 -43 -262
14 -377 29 -581 76 -643 149 -1163 380 -1732 771 -186 127 -259 195 -259 242
0 26 166 272 413 611 63 86 73 88 144 31z m-5505 -1470 l28 -6 -28 -40 c-15
-23 -67 -79 -116 -125 -107 -102 -210 -229 -333 -410 -130 -191 -150 -213
-212 -229 -94 -24 -120 -61 -263 -377 -69 -154 -131 -297 -138 -319 -6 -22
-20 -63 -31 -90 -19 -49 -20 -50 -57 -47 -57 5 -109 -30 -218 -147 -198 -214
-214 -247 -194 -414 31 -274 69 -476 99 -534 10 -21 33 -51 51 -68 33 -31 74
-100 68 -115 -2 -5 -18 -2 -37 7 -25 13 -54 48 -109 133 -299 458 -363 643
-379 1095 -7 193 5 312 41 411 71 196 228 369 472 523 306 194 467 327 600
497 107 136 186 197 296 224 104 26 396 46 460 31z m6319 -100 c470 -166 790
-242 1221 -290 141 -16 174 -23 211 -44 108 -63 262 -297 334 -504 23 -66 27
-95 27 -193 1 -99 -4 -137 -37 -279 -21 -90 -49 -192 -61 -225 -52 -136 -301
-614 -489 -936 -210 -360 -513 -824 -578 -886 -40 -38 -404 -310 -894 -669
-252 -185 -663 -459 -710 -475 -132 -44 -323 69 -408 241 -22 46 -55 93 -86
122 -32 31 -51 58 -55 79 -7 42 -37 292 -76 633 -69 606 -132 894 -316 1442
-41 122 -74 233 -74 246 0 14 14 51 30 82 17 33 30 72 30 94 0 91 -75 494
-100 542 -13 24 -53 25 -76 2 -23 -24 -15 -99 35 -311 22 -95 38 -179 34 -187
-9 -25 -42 -17 -58 14 -8 16 -24 54 -35 84 -26 69 -105 201 -176 294 -34 43
-57 86 -61 107 l-6 36 44 -24 c41 -23 66 -30 97 -27 27 2 31 50 21 221 -11
164 0 551 17 594 9 22 21 12 48 -43 32 -63 93 -117 207 -183 152 -89 170 -93
414 -92 116 1 325 7 465 13 298 14 384 7 533 -43 127 -44 232 -108 370 -228
62 -54 115 -98 120 -98 4 0 7 14 7 32 0 28 -15 46 -107 135 -172 165 -250 215
-393 251 -56 14 -139 16 -600 17 l-535 0 -58 29 c-119 58 -227 200 -243 318
-12 90 -2 89 99 -9 51 -49 113 -101 138 -116 97 -57 115 -60 374 -62 182 -1
283 -7 415 -24 110 -14 197 -20 235 -17 125 13 210 81 338 274 86 129 103 145
143 137 17 -3 118 -36 225 -74z m-2541 -411 c11 -11 22 -32 26 -47 3 -16 33
-134 65 -263 33 -129 59 -236 59 -237 0 -2 -15 -3 -34 -3 -47 0 -66 -9 -76
-36 -16 -40 -52 -435 -47 -502 6 -82 38 -144 133 -262 134 -166 173 -244 189
-372 l7 -57 -210 6 c-187 5 -214 4 -236 -11 -28 -18 -34 -47 -13 -65 7 -6 94
-18 193 -26 234 -21 269 -29 292 -65 13 -22 36 -215 28 -236 -3 -8 -23 -17
-45 -20 -47 -7 -67 -21 -75 -49 -5 -17 2 -22 54 -38 71 -21 85 -47 51 -95 -48
-68 -131 -111 -217 -112 -69 0 -95 10 -376 148 -266 131 -439 228 -593 331
-139 94 -608 441 -674 499 l-55 48 31 45 c17 24 74 90 127 145 72 77 123 119
208 174 62 41 130 87 152 103 21 17 151 155 289 306 256 283 654 686 691 701
31 13 34 12 56 -10z m-1710 -1378 c0 -10 -51 -58 -105 -99 -93 -70 -305 -177
-321 -161 -8 8 56 82 109 126 57 46 169 108 232 128 47 15 85 17 85 6z m-3116
-78 c33 -88 247 -767 262 -833 10 -43 13 -85 9 -126 l-7 -62 46 -57 c46 -56
46 -57 29 -81 -39 -53 -90 -57 -112 -8 -7 14 -50 173 -96 352 -46 179 -99 387
-118 461 -32 124 -57 289 -57 376 0 50 20 39 44 -22z m72 -1339 c57 -31 110
-66 119 -78 16 -22 18 -74 6 -117 -10 -35 -3 -56 24 -68 20 -9 30 -6 62 17 21
16 49 41 63 56 36 39 78 58 112 51 22 -4 128 -60 176 -92 9 -6 -320 -484 -328
-479 -19 12 -48 81 -90 215 -38 123 -139 339 -237 508 -14 23 -22 42 -18 42 5
0 54 -25 111 -55z m1112 -174 c2 -18 -8 -76 -22 -129 -91 -346 -105 -730 -41
-1106 30 -179 60 -282 125 -426 62 -140 72 -155 111 -176 28 -14 33 -14 47 -1
13 14 12 42 -8 264 -18 196 -21 282 -16 413 10 276 48 480 115 625 87 188 181
220 314 106 118 -100 202 -221 278 -398 28 -65 57 -128 65 -141 24 -37 62 -26
104 31 50 65 291 572 328 688 17 52 43 135 59 184 40 128 41 128 211 -37 253
-246 437 -392 689 -549 394 -246 790 -421 1206 -535 111 -30 243 -68 292 -84
124 -39 167 -47 344 -61 189 -14 309 -9 345 14 43 29 55 69 80 268 13 105 27
193 29 196 12 12 30 -13 72 -100 90 -190 228 -279 430 -280 90 -1 111 3 210
37 171 58 282 116 671 349 198 119 375 220 392 223 24 5 46 -1 88 -22 52 -26
134 -96 134 -114 0 -5 -21 -20 -47 -35 -27 -15 -81 -52 -120 -81 -138 -103
-134 -133 23 -177 182 -50 327 -136 478 -284 199 -196 347 -441 435 -718 18
-55 58 -158 90 -230 72 -159 219 -564 254 -700 33 -129 201 -968 221 -1105 19
-133 30 -257 57 -645 18 -256 21 -359 15 -592 -4 -177 -2 -284 4 -288 20 -12
70 28 160 127 103 115 117 127 126 103 13 -33 -130 -365 -259 -601 -157 -289
-289 -571 -404 -864 -93 -235 -130 -303 -218 -399 -65 -71 -136 -119 -400
-273 -137 -80 -336 -197 -440 -260 -110 -66 -220 -124 -260 -137 -133 -44
-340 -38 -770 25 -55 8 -460 95 -900 193 -440 99 -818 182 -841 186 -81 13
-106 39 -155 169 -27 71 -116 171 -181 203 -23 12 -141 60 -261 107 -121 46
-222 87 -225 91 -10 10 14 40 35 43 10 2 96 -25 189 -60 160 -59 174 -62 259
-63 80 0 95 3 140 28 75 42 339 302 355 350 17 55 -2 98 -103 232 -121 162
-179 184 -314 119 -88 -42 -131 -116 -143 -248 -8 -83 -11 -93 -38 -117 -22
-20 -45 -29 -90 -34 -34 -4 -66 -4 -71 0 -19 11 -164 -15 -219 -40 -29 -13
-81 -52 -116 -85 l-63 -60 -39 14 c-66 23 -186 86 -249 131 -130 92 -209 198
-385 517 -78 141 -92 174 -133 320 -301 1065 -358 1253 -420 1374 -14 27 -68
100 -121 162 -109 129 -221 277 -356 472 -51 74 -264 372 -472 662 l-379 528
-83 187 c-45 104 -99 240 -120 304 -20 64 -56 150 -80 191 -23 42 -156 239
-296 439 -355 510 -355 510 -369 546 -24 60 -10 140 43 249 136 281 319 552
500 742 44 45 84 81 90 79 6 -2 12 -18 14 -36z"/>
<path d="M20701 23329 c-66 -13 -141 -39 -141 -50 0 -5 21 -28 47 -51 73 -67
101 -98 165 -181 73 -95 127 -135 166 -121 89 31 81 242 -14 352 -50 59 -112
73 -223 51z"/>
<path d="M22007 17370 c-8 -37 -8 -37 69 -195 34 -71 76 -168 93 -215 17 -47
51 -143 77 -214 44 -123 86 -206 106 -206 5 0 18 21 30 47 16 37 19 59 15 112
-4 57 -21 102 -122 326 -110 246 -172 354 -211 369 -34 13 -51 6 -57 -24z"/>
<path d="M21236 15678 c-8 -18 -24 -58 -36 -90 -27 -69 -75 -127 -149 -177
-114 -78 -190 -179 -225 -301 -13 -46 -66 -319 -66 -342 0 -19 40 -46 60 -41
27 7 362 370 408 443 67 104 101 242 102 410 0 89 -15 124 -53 128 -22 3 -29
-2 -41 -30z"/>
<path d="M20460 14004 c-60 -49 -142 -104 -190 -129 -96 -49 -133 -81 -110
-95 30 -19 95 -21 137 -6 103 37 245 154 282 235 20 41 22 53 11 66 -7 8 -15
15 -19 15 -3 0 -53 -39 -111 -86z"/>
<path d="M13823 17368 c-37 -12 -419 -305 -447 -343 -27 -38 -34 -81 -24 -169
9 -90 24 -119 66 -134 52 -18 79 4 213 179 70 90 169 213 222 272 118 134 128
169 54 197 -33 12 -41 12 -84 -2z"/>
<path d="M12640 16287 c-14 -7 -63 -44 -110 -82 -137 -111 -312 -220 -517
-322 -105 -52 -206 -108 -225 -123 l-32 -27 -7 -129 c-4 -71 -10 -157 -14
-190 -7 -55 -5 -64 14 -83 44 -44 62 -33 363 224 304 260 332 290 471 485 90
127 117 172 117 197 0 62 -14 74 -60 50z"/>
<path d="M10027 14317 c-117 -119 -201 -177 -409 -284 -92 -47 -177 -96 -190
-110 -19 -21 -23 -35 -22 -86 2 -123 52 -177 164 -177 116 1 253 65 320 150
57 72 302 518 307 560 l6 40 -42 0 c-39 0 -47 -5 -134 -93z"/>
<path d="M11440 21376 c-55 -19 -213 -100 -289 -147 -30 -20 -26 -46 14 -86
32 -32 40 -35 79 -31 24 3 90 27 146 53 89 42 107 47 151 43 104 -10 89 -39
-57 -110 -56 -27 -111 -59 -122 -71 l-21 -22 85 -103 c47 -57 92 -106 100
-109 27 -10 61 6 140 68 88 68 130 92 190 108 22 6 49 20 58 30 27 30 5 57
-78 95 -93 43 -102 57 -25 39 54 -12 64 -12 85 2 34 22 31 64 -9 116 -100 132
-285 183 -447 125z m238 -346 c23 -10 42 -21 42 -24 0 -7 -98 -70 -123 -79 -9
-3 -28 -2 -42 3 -43 16 -31 80 20 108 29 16 54 14 103 -8z"/>
<path d="M10966 21093 c-28 -71 125 -247 359 -413 145 -103 155 -112 155 -151
0 -37 -39 -66 -98 -75 -53 -8 -90 -24 -114 -50 -20 -23 -184 -383 -199 -436
-13 -49 9 -104 47 -118 92 -35 189 73 208 231 12 100 59 144 207 196 87 30
125 26 200 -23 59 -38 80 -42 99 -19 16 19 2 71 -41 158 -43 85 -79 119 -279
267 -166 123 -215 166 -294 265 -35 43 -217 185 -237 185 -4 0 -10 -7 -13 -17z"/>
<path d="M10700 21023 c0 -16 134 -214 151 -223 14 -8 20 -6 29 9 5 11 10 27
10 36 0 26 -35 87 -80 138 -34 39 -48 47 -76 47 -19 0 -34 -3 -34 -7z"/>
<path d="M10529 20947 c-20 -12 -54 -34 -76 -48 -21 -15 -92 -46 -158 -69
-236 -85 -341 -145 -441 -253 -105 -112 -150 -237 -141 -392 5 -105 18 -139
60 -156 52 -22 76 1 120 116 96 253 134 315 236 382 95 64 259 109 289 79 12
-13 -66 -74 -158 -124 -141 -77 -159 -99 -271 -329 -55 -112 -99 -215 -99
-231 0 -17 9 -37 24 -51 l24 -22 109 108 c115 113 176 156 403 277 149 79 153
87 110 186 -44 99 -39 153 26 310 33 78 48 130 49 161 0 79 -37 99 -106 56z
m-89 -517 c32 -32 25 -68 -19 -109 -41 -38 -170 -111 -240 -135 -40 -15 -41
-15 -47 8 -13 53 78 176 161 218 81 42 117 46 145 18z"/>
<path d="M11686 19871 c-49 -21 -92 -45 -97 -53 -15 -27 14 -53 60 -53 43 0
81 23 112 66 21 28 35 79 23 78 -5 0 -49 -17 -98 -38z"/>
<path d="M11977 19850 c-91 -16 -358 -157 -446 -236 -70 -63 -133 -153 -186
-268 -48 -102 -53 -127 -31 -145 32 -27 61 4 142 149 56 101 91 153 124 182
26 24 120 78 225 130 l180 90 125 -5 c142 -7 159 -2 145 40 -8 22 -21 32 -60
44 -64 21 -157 29 -218 19z"/>
<path d="M11962 19644 c-228 -67 -432 -233 -432 -351 0 -23 82 -221 103 -250
17 -24 52 -13 107 33 84 70 184 135 305 199 205 109 209 114 160 187 -15 22
-31 68 -39 109 -9 47 -20 77 -32 86 -26 19 -78 15 -172 -13z"/>
<path d="M11497 18202 c-38 -24 -276 -301 -284 -331 -8 -32 7 -54 44 -65 25
-7 47 -1 127 34 122 54 156 89 185 199 28 105 27 135 -5 160 -32 25 -32 25
-67 3z"/>
<path d="M17081 20352 c-14 -27 -17 -313 -3 -338 22 -41 37 -46 67 -22 33 26
55 75 55 124 0 43 -35 186 -56 226 -17 32 -48 37 -63 10z"/>
<path d="M16880 15458 c-37 -10 -403 -228 -434 -258 -21 -21 -24 -63 -6 -85
25 -30 154 -115 175 -115 30 0 58 22 170 130 55 54 132 118 170 143 39 25 82
58 98 74 l27 29 -37 37 c-20 20 -52 41 -72 47 -42 11 -45 11 -91 -2z"/>
<path d="M14675 13946 c-56 -25 -430 -257 -448 -278 -17 -20 -16 -51 3 -72 12
-12 95 33 264 143 83 55 176 111 207 126 31 14 67 37 79 50 22 23 22 23 2 34
-27 15 -70 13 -107 -3z"/>
<path d="M11475 11365 c-92 -20 -188 -59 -331 -136 -95 -51 -135 -78 -143 -97
-11 -22 -10 -28 6 -40 41 -30 60 -25 234 57 94 45 219 98 277 118 99 33 142
55 142 74 0 4 -7 15 -16 23 -19 19 -85 20 -169 1z"/>
<path d="M14370 11266 c-11 -29 -4 -53 43 -161 43 -100 67 -204 67 -289 l0
-66 -50 0 c-27 0 -84 -11 -127 -25 -141 -46 -193 -50 -396 -30 -193 19 -246
16 -278 -16 -42 -42 -9 -157 62 -209 44 -31 162 -66 482 -140 250 -57 278 -60
311 -27 58 58 82 202 52 315 -14 50 -13 54 8 80 59 70 61 112 12 304 -36 146
-72 224 -119 264 -36 30 -55 30 -67 0z"/>
<path d="M10676 11187 c-22 -16 -70 -159 -92 -273 -13 -71 -15 -115 -9 -219
13 -224 13 -232 -28 -308 -63 -117 -55 -141 102 -301 94 -96 121 -130 130
-163 14 -50 1 -85 -36 -102 -14 -7 -71 -14 -126 -16 -107 -5 -147 -20 -147
-55 0 -43 62 -156 114 -210 30 -30 58 -64 64 -76 6 -11 15 -79 21 -150 14
-180 35 -232 137 -329 47 -44 64 -91 64 -171 0 -140 103 -310 184 -302 46 4
46 43 2 137 -20 42 -43 107 -52 144 -22 90 -15 98 98 107 46 4 101 15 122 25
56 24 99 14 222 -50 94 -50 110 -55 167 -55 82 0 134 16 169 50 35 35 38 78 6
84 -13 3 -69 7 -124 8 -97 3 -105 5 -195 50 -52 25 -111 52 -133 58 -36 12
-108 9 -183 -6 -18 -3 -44 -3 -58 0 -39 10 -96 66 -121 121 -46 97 -24 248 42
292 27 17 125 14 224 -7 67 -15 211 -7 295 15 70 19 252 103 278 129 25 26 22
64 -7 77 -19 9 -61 5 -192 -16 -224 -36 -321 -33 -417 12 -37 18 -91 55 -120
82 -70 66 -100 128 -105 212 -4 59 -1 70 18 89 22 22 26 22 156 15 133 -7 135
-7 190 20 41 20 68 44 111 98 110 140 184 217 207 217 12 0 45 7 72 15 59 17
100 57 274 270 147 179 235 267 330 330 80 53 91 80 36 90 -22 5 -46 1 -68 -9
-46 -22 -308 -274 -430 -415 -108 -124 -144 -158 -195 -185 -32 -16 -33 -16
-76 15 -55 39 -93 40 -178 4 -210 -87 -261 -105 -328 -116 -132 -20 -238 6
-298 74 -58 66 -66 112 -70 402 -4 318 -5 323 -47 292z"/>
<path d="M15250 11171 c-52 -28 -312 -299 -404 -421 -95 -126 -140 -218 -131
-267 7 -39 62 -98 99 -105 34 -7 80 15 244 117 210 130 222 145 303 384 42
125 43 129 30 184 -16 71 -49 121 -81 124 -14 2 -41 -6 -60 -16z"/>
<path d="M11394 10754 c-49 -31 -104 -67 -121 -80 -53 -40 -40 -94 22 -94 25
0 47 17 134 104 97 97 102 105 83 115 -11 6 -23 11 -25 11 -2 0 -44 -25 -93
-56z"/>
<path d="M12560 10234 c-245 -209 -281 -244 -278 -268 2 -17 11 -22 46 -24 37
-3 51 3 106 42 58 41 261 264 278 305 11 27 9 61 -4 60 -7 0 -74 -52 -148
-115z"/>
<path d="M14562 10188 c-18 -6 -43 -20 -55 -32 -39 -36 -186 -282 -297 -496
-58 -113 -196 -355 -305 -539 -225 -376 -292 -461 -421 -536 -84 -49 -277
-185 -323 -228 -67 -64 -95 -184 -58 -253 28 -54 75 -69 212 -69 l120 0 118
48 c219 89 338 111 667 126 289 14 358 45 471 214 113 168 149 263 149 392 1
69 1 70 19 49 13 -17 22 -62 35 -185 21 -199 42 -243 90 -190 38 42 30 182
-29 476 -36 181 -50 271 -89 590 -14 110 -36 243 -49 295 -34 131 -94 290
-121 318 -27 27 -85 36 -134 20z m82 -155 c57 -114 100 -300 115 -496 15 -203
8 -201 -99 18 -50 105 -98 207 -106 229 -17 47 -18 141 -2 187 11 32 56 109
64 109 2 0 14 -21 28 -47z"/>
<path d="M16920 9934 c-109 -111 -678 -653 -729 -693 -78 -61 -218 -127 -309
-146 -130 -27 -152 -35 -192 -71 -43 -39 -64 -93 -75 -185 -7 -68 -14 -74
-148 -159 -119 -74 -157 -88 -248 -93 -73 -4 -109 -23 -109 -58 0 -37 141
-108 230 -116 49 -5 70 0 185 45 226 87 434 138 685 167 74 8 153 20 175 26
169 47 262 177 310 435 21 112 43 169 105 270 74 121 125 236 164 370 47 165
53 210 31 234 -10 11 -21 20 -24 20 -4 0 -27 -21 -51 -46z"/>
<path d="M12933 9368 c-6 -7 -27 -45 -47 -85 -65 -124 -117 -170 -458 -408
-394 -274 -417 -291 -430 -320 -16 -35 -2 -71 36 -94 26 -16 62 -24 142 -31
127 -11 180 -33 325 -132 53 -36 122 -75 155 -88 76 -29 159 -30 205 -4 58 33
68 69 84 296 16 221 34 373 65 543 22 125 26 268 7 305 -14 28 -67 40 -84 18z"/>
<path d="M12260 8989 c-37 -19 -82 -33 -135 -40 -88 -12 -119 -31 -128 -78 -9
-46 -38 -72 -91 -82 -101 -19 -125 -46 -82 -95 22 -26 30 -29 88 -29 74 1 110
19 150 75 38 55 65 69 146 79 80 10 129 35 167 85 30 40 32 69 5 96 -27 27
-54 24 -120 -11z"/>
<path d="M16615 8442 c-57 -37 -185 -153 -238 -217 -53 -64 -77 -104 -201
-335 -38 -69 -88 -156 -114 -195 -60 -92 -243 -273 -362 -358 -88 -62 -357
-207 -385 -207 -9 0 -15 30 -20 98 -3 53 -17 138 -30 187 -13 50 -26 128 -30
175 -14 183 -65 410 -113 507 -53 104 -92 139 -131 114 -11 -7 -3 -40 42 -172
59 -175 81 -282 97 -473 8 -88 17 -135 36 -180 39 -93 40 -99 6 -137 -30 -34
-30 -34 -145 -40 -168 -9 -177 -15 -355 -223 -181 -212 -235 -264 -309 -301
-49 -25 -72 -30 -148 -33 -90 -3 -111 1 -335 63 -103 29 -296 13 -380 -30 -38
-20 -42 -67 -7 -89 27 -17 154 -52 222 -61 128 -17 240 -62 348 -139 63 -46
135 -60 262 -53 129 8 504 69 577 95 116 41 207 120 294 254 43 67 83 98 126
98 13 0 55 -7 93 -15 127 -27 390 -15 550 26 44 11 136 47 205 81 107 52 135
71 196 132 129 130 158 205 243 632 94 468 127 732 99 784 -17 32 -54 36 -93
12z"/>
<path d="M13097 7746 c-89 -32 -118 -64 -394 -431 -192 -255 -253 -313 -418
-398 -104 -54 -135 -87 -135 -142 0 -53 32 -90 112 -129 64 -32 87 -38 183
-46 222 -18 583 -6 648 23 57 25 311 278 342 341 30 59 34 148 10 229 -25 90
-45 225 -52 360 -5 115 -9 132 -29 157 -40 47 -182 66 -267 36z"/>
<path d="M16424 6845 c-335 -175 -461 -261 -504 -345 -46 -91 -49 -241 -8
-470 35 -196 23 -531 -27 -796 -14 -69 -14 -80 0 -101 18 -27 18 -27 54 -9 33
17 261 307 296 375 36 73 54 144 70 295 14 129 22 159 124 470 118 357 133
416 135 517 2 109 -28 122 -140 64z"/>
<path d="M15312 6668 c-7 -7 -12 -20 -12 -31 0 -10 33 -109 74 -220 41 -111
84 -235 97 -274 38 -121 66 -88 56 66 -3 51 -17 121 -32 171 -39 122 -103 273
-122 288 -21 15 -46 15 -61 0z"/>
<path d="M21120 24459 c0 -19 57 -66 161 -129 90 -56 129 -68 129 -41 0 19
-71 70 -173 124 -113 61 -117 63 -117 46z"/>
<path d="M9120 24285 c-36 -19 -73 -34 -83 -35 -28 0 -207 -149 -207 -171 0
-33 59 -24 126 19 65 43 85 63 105 106 10 21 35 41 81 65 64 34 83 52 56 51
-7 -1 -42 -16 -78 -35z"/>
<path d="M4541 24115 c-201 -45 -339 -158 -571 -465 -81 -107 -173 -228 -204
-268 -49 -62 -55 -73 -39 -78 55 -19 154 -70 226 -117 200 -131 572 -442 1022
-857 261 -240 281 -256 339 -285 45 -22 57 -24 82 -15 63 24 111 90 150 206
14 42 23 79 20 81 -3 3 -30 16 -59 28 -95 38 -182 93 -344 215 -87 65 -169
128 -183 139 l-25 20 41 58 c50 71 105 114 181 143 119 45 181 51 583 60 447
9 499 17 568 83 60 58 62 135 6 253 l-25 54 -48 -24 c-105 -54 -284 -82 -609
-96 -209 -10 -351 -28 -395 -52 -10 -5 -20 -8 -22 -6 -3 2 2 28 10 58 54 199
30 396 -66 556 -41 68 -145 175 -221 227 -118 81 -280 113 -417 82z m224 -319
c96 -48 192 -147 241 -250 88 -184 42 -405 -128 -619 -34 -43 -67 -77 -74 -75
-28 7 -666 581 -672 604 -6 24 89 157 162 229 156 154 310 190 471 111z"/>
<path d="M21580 23958 c0 -8 54 -48 120 -89 87 -53 114 -75 100 -77 -30 -5
-19 -25 18 -33 86 -17 248 -128 368 -251 93 -95 156 -135 200 -124 49 13 45
112 -10 239 -20 44 -34 82 -33 83 4 4 358 -314 373 -334 8 -12 29 -31 47 -44
23 -17 14 -2 -33 52 -36 41 -91 110 -124 152 -44 59 -76 88 -131 123 -84 52
-152 79 -157 63 -6 -16 -37 -3 -137 57 -50 30 -93 55 -97 55 -3 0 43 -51 103
-114 146 -152 200 -232 134 -197 -44 24 -220 171 -252 211 -82 101 -92 111
-100 99 -5 -9 -48 8 -156 59 -153 73 -233 97 -233 70z"/>
<path d="M25270 23595 c-8 -2 -49 -9 -90 -15 -342 -56 -698 -323 -846 -635
-203 -428 -91 -927 290 -1293 238 -228 541 -342 876 -329 306 12 562 127 791
356 116 117 167 188 216 302 173 401 62 859 -302 1238 -201 210 -419 326 -685
367 -85 12 -209 17 -250 9z m422 -312 c175 -61 335 -191 451 -365 111 -166
157 -305 157 -470 0 -279 -132 -504 -401 -684 -188 -125 -321 -168 -529 -168
-155 0 -241 19 -364 80 -98 50 -153 92 -243 189 -94 100 -164 213 -206 332
-30 83 -32 96 -32 233 0 162 16 232 80 360 101 201 313 384 557 481 98 39 165
49 308 45 120 -2 145 -6 222 -33z"/>
<path d="M22954 23146 c88 -85 163 -153 166 -151 4 3 16 -5 26 -18 16 -18 16
-19 2 -8 -10 7 -18 10 -18 7 0 -4 -42 16 -93 44 -105 56 -127 61 -127 28 0
-25 129 -151 193 -190 21 -13 61 -38 89 -55 l50 -33 -52 61 c-52 60 -53 60
-16 39 39 -24 46 -15 19 28 -9 15 21 -9 67 -53 46 -44 77 -71 69 -60 -9 11
-45 56 -80 100 -36 44 -78 100 -93 125 -40 62 -87 122 -93 116 -3 -2 19 -35
49 -73 52 -67 50 -65 -132 90 l-185 158 159 -155z"/>
<path d="M23371 22734 c13 -17 79 -97 147 -177 67 -80 122 -151 122 -157 0 -7
55 -67 123 -134 67 -67 144 -145 170 -174 26 -29 51 -52 54 -52 3 0 -2 8 -11
19 -9 10 -16 23 -14 28 2 5 -29 36 -67 69 -107 93 -240 238 -221 242 22 5 20
14 -12 53 -38 47 -321 321 -291 283z"/>
<path d="M23591 22664 c69 -74 130 -150 198 -246 34 -49 69 -88 76 -88 19 0
19 9 -1 55 -15 36 -14 37 3 31 25 -8 -179 188 -258 248 l-64 49 46 -49z"/>
<path d="M6675 22381 l-100 -6 -16 -110 c-9 -60 -19 -135 -23 -165 l-7 -55 31
64 c43 89 109 180 172 235 29 25 51 45 48 44 -3 -1 -50 -4 -105 -7z"/>
<path d="M2919 22079 c-20 -6 -49 -24 -64 -39 -37 -38 -44 -113 -21 -195 15
-51 20 -56 39 -51 12 3 51 9 87 12 l65 6 116 -168 c64 -93 207 -306 317 -474
110 -168 277 -422 371 -565 176 -268 242 -355 292 -380 59 -31 122 -14 177 50
40 45 76 115 65 125 -4 4 -37 31 -73 59 -94 75 -237 245 -354 422 l-37 57 201
333 c111 184 206 338 210 343 5 5 71 -2 157 -18 246 -43 283 -48 408 -48 180
0 233 24 261 118 12 43 13 64 3 118 l-11 67 -97 -7 c-219 -15 -580 30 -1626
201 -232 38 -425 51 -486 34z m686 -334 c341 -53 480 -80 478 -93 -4 -18 -305
-512 -312 -512 -6 0 -441 597 -465 637 -7 13 -2 14 30 9 22 -3 143 -22 269
-41z"/>
<path d="M27210 21513 c-193 -163 -679 -405 -1470 -734 -225 -94 -276 -124
-306 -180 -38 -75 6 -243 131 -494 191 -382 441 -618 775 -729 140 -46 242
-60 403 -53 276 11 514 113 703 301 101 101 158 189 203 312 50 136 64 224 64
384 -1 283 -56 463 -285 922 -88 175 -160 318 -161 318 -1 0 -27 -21 -57 -47z
m42 -476 c198 -347 244 -611 152 -886 -85 -256 -315 -456 -612 -532 -103 -26
-271 -26 -374 0 -142 37 -306 136 -404 244 -130 145 -249 374 -279 538 l-7 37
124 65 c164 87 466 229 833 392 318 141 507 223 515 224 3 1 26 -36 52 -82z"/>
<path d="M24420 21198 c0 -18 9 -73 19 -123 17 -81 23 -95 63 -137 42 -44 107
-148 93 -148 -4 0 -20 9 -36 21 -16 11 -29 17 -29 12 0 -12 20 -40 20 -28 0 5
22 -13 50 -40 27 -27 53 -46 56 -42 4 3 -7 32 -24 64 -78 147 -152 305 -177
376 -15 42 -29 77 -31 77 -2 0 -4 -15 -4 -32z"/>
<path d="M25860 18232 c0 -60 32 -180 105 -397 78 -231 121 -409 111 -451 -5
-20 3 -36 39 -80 25 -31 45 -49 45 -41 0 24 -114 418 -170 587 -28 85 -67 211
-86 279 -19 68 -36 127 -39 129 -3 3 -5 -9 -5 -26z"/>
<path d="M2395 12829 c-88 -29 -330 -75 -567 -109 -115 -17 -210 -30 -212 -30
-13 0 -14 -40 -2 -93 8 -34 22 -114 31 -177 17 -116 33 -172 55 -185 15 -9 70
2 93 19 17 13 17 15 -3 49 -18 31 -38 110 -64 254 -5 31 -5 32 42 39 26 3 96
15 157 25 60 10 110 17 111 16 1 -1 9 -47 18 -102 34 -210 44 -227 111 -205
19 6 35 12 35 14 0 1 -11 45 -24 98 -14 52 -28 122 -31 154 l-7 59 113 18
c165 25 153 28 169 -50 7 -38 16 -113 19 -167 l6 -100 32 -8 c18 -5 42 -4 58
2 25 10 27 13 22 63 -7 86 -81 437 -92 436 -5 -1 -37 -10 -70 -20z"/>
<path d="M27344 12812 c-21 -14 -33 -48 -44 -132 -10 -82 -45 -293 -55 -336
-4 -20 0 -21 93 -27 112 -7 316 -42 552 -94 91 -20 181 -37 200 -37 31 -1 35
2 41 34 68 337 73 377 56 404 -13 20 -26 26 -51 26 -59 0 -63 -5 -58 -65 4
-51 -23 -240 -38 -265 -5 -8 -48 -3 -155 20 -82 17 -151 33 -154 35 -2 3 7 66
22 141 28 148 26 179 -17 190 -45 11 -66 -3 -66 -45 0 -36 -35 -260 -42 -266
-2 -2 -60 9 -130 23 -118 25 -128 28 -128 49 0 49 40 223 60 262 11 23 18 45
16 50 -6 10 -70 41 -83 41 -4 0 -13 -4 -19 -8z"/>
<path d="M2463 12182 c-23 -48 -91 -139 -189 -249 l-55 -63 -153 79 c-223 114
-303 140 -334 109 -16 -16 -15 -51 2 -93 13 -31 17 -34 49 -28 20 3 60 -2 93
-12 71 -21 274 -114 274 -127 0 -5 -65 -75 -144 -156 -79 -81 -146 -157 -150
-169 -10 -31 10 -62 49 -79 48 -20 75 -18 75 4 0 10 19 46 43 79 55 80 225
273 239 273 6 0 40 -16 75 -35 107 -59 279 -134 322 -141 27 -4 46 -2 56 6 18
15 19 67 1 98 -11 20 -21 24 -77 26 -51 2 -87 12 -177 51 -62 26 -119 53 -128
60 -14 10 5 33 130 164 90 93 146 160 146 172 0 33 -18 56 -51 68 -57 20 -72
14 -96 -37z"/>
<path d="M27281 12019 c-50 -20 -101 -71 -131 -132 -21 -42 -39 -109 -59 -209
l-28 -148 50 0 c90 0 364 -62 659 -150 55 -17 111 -30 124 -30 31 0 54 36 54
86 0 60 -7 72 -35 66 -27 -5 -163 13 -233 30 -41 10 -43 12 -36 42 17 80 62
119 259 220 186 96 219 140 154 205 -34 34 -44 38 -52 17 -9 -22 -103 -89
-212 -151 -55 -31 -109 -65 -120 -75 -20 -19 -20 -18 -38 42 -24 80 -97 156
-176 181 -58 18 -142 21 -180 6z m187 -140 c51 -25 97 -89 107 -151 7 -42 -1
-135 -13 -156 -6 -9 -44 -2 -158 28 -231 62 -216 55 -208 98 13 82 35 131 75
166 35 32 45 36 96 36 38 0 72 -7 101 -21z"/>
<path d="M4515 11485 c3 -33 8 -128 12 -211 6 -157 1 -181 -34 -153 -9 8 -1
-17 19 -56 19 -39 40 -81 46 -95 l12 -25 -6 25 c-3 14 -7 34 -10 45 -2 11 21
-29 51 -90 l54 -110 0 56 c1 36 -17 130 -50 260 -28 112 -62 251 -75 309 -21
90 -23 97 -19 45z"/>
<path d="M2710 11413 c-84 -42 -268 -102 -505 -164 -104 -27 -203 -54 -218
-60 -43 -18 -51 -42 -29 -92 31 -70 40 -73 114 -32 57 31 208 89 213 82 2 -1
10 -29 20 -62 23 -81 55 -134 114 -187 90 -81 203 -98 320 -48 108 47 163 154
142 279 -8 50 -95 312 -104 317 -1 0 -31 -14 -67 -33z m47 -190 c25 -67 24
-163 -3 -200 -46 -64 -180 -96 -249 -60 -56 29 -102 99 -119 183 l-7 31 108
31 c145 42 215 60 235 61 11 1 23 -15 35 -46z"/>
<path d="M27012 11330 c-29 -12 -45 -54 -37 -100 l6 -35 87 -2 c214 -3 513
-127 579 -240 68 -117 -5 -327 -123 -349 -94 -17 -176 2 -542 131 -124 44
-134 46 -156 31 -43 -27 -47 -150 -6 -139 37 10 157 -19 348 -84 281 -94 389
-97 485 -13 70 62 127 203 127 315 0 95 -25 152 -98 225 -101 100 -274 182
-521 246 -101 26 -115 27 -149 14z"/>
<path d="M2943 10764 c-42 -30 -289 -125 -535 -205 -136 -45 -249 -87 -251
-93 -7 -19 129 -386 151 -408 23 -24 60 -17 92 17 l22 23 -30 41 c-31 43 -106
233 -100 253 4 12 288 111 296 104 2 -3 24 -62 48 -132 25 -71 50 -134 56
-141 14 -18 59 -16 85 2 l22 15 -34 73 c-55 121 -87 217 -72 222 178 63 242
84 245 81 13 -14 74 -199 84 -256 l12 -70 42 0 c54 0 78 22 70 63 -3 16 -32
95 -65 176 -32 80 -67 170 -77 199 -19 56 -26 60 -61 36z"/>
<path d="M26718 10488 c-6 -72 -48 -188 -149 -419 -38 -86 -69 -165 -69 -177
0 -33 27 -52 74 -52 l43 0 6 53 c8 61 57 207 72 213 11 5 302 -109 520 -204
77 -33 151 -63 165 -67 43 -10 63 14 68 83 l4 60 -43 7 c-62 9 -140 31 -239
67 -102 37 -412 167 -423 177 -4 4 9 43 29 87 52 114 65 155 59 185 -7 29 -41
49 -84 49 -27 0 -28 -2 -33 -62z"/>
<path d="M3154 10178 c-75 -57 -246 -135 -553 -254 -90 -35 -172 -71 -182 -80
-29 -26 -23 -60 17 -104 l36 -40 31 26 c26 22 217 124 232 124 13 0 35 -64 35
-103 0 -58 -10 -85 -92 -259 -95 -200 -94 -244 6 -255 l46 -6 0 34 c0 38 40
154 94 274 20 44 36 91 36 104 l0 23 35 -26 c59 -45 115 -66 181 -66 162 0
270 100 268 250 -1 70 -13 105 -89 261 l-61 127 -40 -30z m50 -217 c50 -111
29 -208 -53 -250 -86 -44 -168 -36 -238 23 -42 36 -103 139 -90 152 11 12 320
133 338 134 10 0 26 -22 43 -59z"/>
<path d="M26372 9604 c-12 -3 -30 -17 -39 -30 -13 -21 -14 -31 -4 -65 9 -30
16 -39 28 -35 56 22 54 23 184 -131 68 -81 156 -186 194 -233 147 -181 195
-230 224 -230 30 0 64 31 75 67 5 16 1 25 -16 34 -40 21 -91 66 -144 127 l-52
58 69 150 68 149 140 0 c126 0 142 2 168 21 29 22 39 50 29 88 -5 21 -8 21
-263 21 -142 0 -343 3 -448 7 -104 3 -200 4 -213 2z m381 -121 c59 -3 107 -9
107 -13 0 -5 -23 -57 -51 -116 l-51 -109 -69 75 c-38 41 -88 96 -110 123 l-41
47 55 0 c29 0 102 -3 160 -7z"/>
<path d="M3490 9451 c0 -29 -228 -152 -525 -283 -99 -43 -187 -86 -197 -95
-24 -21 -23 -50 4 -89 40 -58 51 -59 118 -10 68 50 238 139 415 216 297 130
299 132 269 195 -20 44 -84 93 -84 66z"/>
<path d="M3651 9113 c-64 -50 -288 -175 -509 -284 -123 -61 -226 -117 -229
-125 -3 -8 13 -44 35 -82 22 -37 63 -114 92 -172 29 -58 59 -113 68 -122 23
-27 60 -22 94 12 l30 30 -39 44 c-35 39 -149 234 -141 241 10 9 269 135 278
135 5 0 31 -41 56 -92 71 -142 90 -168 121 -168 15 0 37 9 49 21 l22 21 -38
59 c-47 74 -116 206 -110 212 13 11 218 117 227 117 16 0 102 -164 126 -240
l22 -70 35 6 c62 12 73 22 67 63 -2 21 -17 58 -33 82 -15 24 -64 110 -109 191
l-82 146 -32 -25z"/>
<path d="M26094 9065 c-9 -13 -18 -42 -21 -63 l-5 -38 61 -11 c33 -7 89 -24
123 -39 68 -30 429 -226 424 -231 -5 -5 -392 -92 -621 -138 -126 -26 -243 -54
-258 -62 -35 -17 -50 -55 -39 -96 8 -31 9 -32 70 -32 54 0 73 -6 164 -53 189
-97 360 -205 427 -269 l65 -62 32 24 c17 13 37 38 43 56 10 28 8 34 -17 58
-15 15 -119 75 -232 133 -271 140 -310 162 -310 169 0 4 21 11 48 16 209 44
673 147 742 165 l85 23 3 40 2 40 -127 62 c-71 33 -216 114 -323 178 -289 173
-304 179 -336 130z"/>
<path d="M3906 8557 c-4 -18 -24 -48 -49 -72 -92 -87 -484 -307 -572 -321 -25
-3 -47 -9 -50 -13 -8 -14 17 -90 37 -111 28 -29 54 -22 158 47 169 112 423
273 426 270 4 -3 -43 -160 -149 -502 -36 -115 -73 -239 -82 -275 -9 -36 -18
-72 -20 -80 -3 -10 8 -22 29 -34 l35 -19 38 30 c60 48 227 153 368 233 304
171 324 186 310 229 -7 23 -64 81 -79 81 -6 0 -22 -16 -35 -36 -39 -57 -184
-160 -438 -310 -40 -24 -73 -40 -73 -37 0 12 111 375 186 610 41 127 74 241
74 253 0 44 -18 60 -91 83 -12 4 -18 -3 -23 -26z"/>
<path d="M25919 8011 c-56 -56 -22 -145 56 -145 86 0 119 120 44 159 -42 22
-67 18 -100 -14z"/>
<path d="M25448 7963 c-14 -16 -42 -57 -63 -93 -21 -36 -69 -111 -107 -168
-37 -57 -68 -107 -68 -110 0 -4 30 -23 67 -42 84 -44 358 -227 523 -348 68
-51 132 -92 141 -92 11 0 43 37 83 98 36 53 88 130 115 170 28 41 51 84 51 98
0 27 -30 51 -76 60 -28 5 -30 3 -41 -39 -15 -55 -142 -249 -157 -239 -77 46
-246 178 -242 187 2 7 38 63 80 124 42 61 76 116 76 122 0 23 -21 47 -49 57
-29 10 -31 9 -62 -46 -47 -84 -128 -202 -139 -202 -15 0 -210 141 -210 152 0
20 109 173 154 218 25 24 46 47 46 51 0 4 -12 21 -26 38 -32 38 -62 39 -96 4z"/>
<path d="M4283 7599 c-152 -29 -288 -151 -333 -297 -47 -153 -10 -316 107
-472 93 -124 184 -146 208 -49 5 21 2 27 -20 37 -49 22 -122 101 -156 169 -31
62 -34 74 -34 157 0 79 4 98 28 148 32 65 104 135 175 170 39 19 63 23 137 23
78 0 98 -4 145 -27 30 -15 81 -53 112 -84 54 -54 118 -155 118 -187 0 -23 13
-27 51 -17 52 15 62 25 61 60 -2 78 -162 254 -285 315 -72 35 -186 65 -242 64
-16 -1 -49 -5 -72 -10z"/>
<path d="M25071 7435 c-76 -65 -114 -232 -76 -345 46 -139 158 -178 355 -125
70 19 163 19 199 1 80 -42 64 -158 -34 -244 -46 -40 -46 -41 -31 -69 44 -87
132 -50 192 80 68 150 6 332 -126 367 -50 13 -136 8 -234 -15 -95 -23 -153
-20 -192 10 -79 61 -58 183 45 259 29 22 30 23 15 52 -30 59 -65 68 -113 29z"/>
<path d="M4975 7047 c-34 -52 -370 -334 -563 -472 -67 -47 -82 -64 -80 -82 2
-12 37 -63 78 -114 168 -207 174 -214 208 -217 27 -3 35 2 52 30 11 18 20 36
20 39 0 3 -20 19 -44 36 -24 17 -76 71 -115 119 l-71 89 27 20 c16 11 72 55
125 98 54 42 101 77 106 77 4 0 43 -45 86 -101 43 -55 89 -107 102 -115 28
-19 59 -11 79 20 14 21 11 25 -43 82 -31 33 -77 87 -102 119 l-44 58 34 29
c19 16 68 54 107 84 l73 56 27 -33 c84 -99 135 -168 150 -206 20 -47 33 -49
83 -14 36 26 35 51 -2 98 -30 38 -234 279 -264 312 -10 11 -15 9 -29 -12z"/>
<path d="M24710 6950 c-12 -16 -24 -44 -26 -62 -5 -31 -3 -34 42 -52 61 -25
197 -127 419 -315 174 -147 208 -170 240 -157 15 5 54 79 55 102 0 6 -28 25
-62 42 -80 40 -194 126 -382 288 -238 207 -246 211 -286 154z"/>
<path d="M24474 6688 c-57 -53 -136 -170 -164 -245 -73 -194 -35 -391 100
-516 142 -132 323 -159 498 -76 77 37 202 152 243 224 34 58 39 119 12 133
-41 21 -73 23 -79 5 -64 -196 -237 -313 -414 -281 -73 13 -123 40 -186 100
-116 109 -140 256 -66 406 31 64 117 161 166 187 28 15 35 24 30 40 -25 78
-72 86 -140 23z"/>
<path d="M5527 6342 c-8 -9 -20 -29 -25 -43 -9 -24 -7 -28 23 -42 19 -9 68
-49 110 -88 l76 -73 -93 -94 c-51 -52 -173 -166 -270 -253 -110 -99 -180 -170
-184 -185 -5 -18 0 -32 17 -51 28 -30 92 -60 97 -45 11 35 81 121 177 216 130
131 331 316 342 315 4 0 42 -39 83 -86 110 -125 150 -139 193 -65 l18 31 -43
22 c-45 23 -206 180 -367 357 -97 107 -121 120 -154 84z"/>
<path d="M23884 5976 c-66 -21 -113 -59 -221 -177 l-101 -113 46 -29 c74 -47
196 -163 387 -367 97 -104 185 -192 195 -195 10 -3 28 0 39 6 19 12 61 78 61
95 0 5 -18 19 -40 32 -22 12 -76 55 -121 94 l-80 71 31 32 c51 52 91 58 324
50 l205 -7 25 25 c29 29 31 40 15 86 -12 33 -10 33 -74 14 -11 -4 -103 -7
-205 -7 l-186 -1 14 40 c19 54 11 158 -16 210 -11 22 -42 61 -70 87 -70 65
-139 82 -228 54z m109 -115 c56 -22 126 -122 127 -182 0 -57 -31 -128 -78
-180 l-48 -52 -127 136 c-70 75 -127 142 -127 149 0 18 87 103 125 122 34 18
91 21 128 7z"/>
<path d="M6103 5722 c-31 -66 -149 -206 -346 -409 -198 -204 -202 -215 -100
-267 44 -22 45 -21 67 25 19 42 100 148 177 231 l44 47 175 -160 c96 -88 186
-170 199 -183 l23 -24 -136 -141 c-75 -77 -136 -148 -136 -156 0 -39 34 -70
97 -89 18 -6 25 0 44 40 32 63 144 196 340 402 90 96 168 184 173 197 7 17 5
29 -4 40 -15 18 -82 55 -99 55 -6 0 -20 -19 -32 -42 -18 -37 -66 -100 -155
-205 -12 -14 -26 -24 -32 -22 -12 4 -361 319 -382 344 -11 13 3 31 104 134
122 125 135 150 99 187 -17 16 -74 44 -90 44 -4 -1 -18 -22 -30 -48z"/>
<path d="M23435 5578 c-11 -6 -60 -50 -110 -97 -49 -47 -122 -114 -161 -149
l-71 -63 85 -82 c105 -102 270 -287 391 -437 51 -63 101 -119 111 -124 15 -7
48 17 174 128 85 75 157 145 161 156 8 27 -10 57 -46 76 -17 8 -32 14 -33 12
-38 -63 -69 -98 -136 -159 -45 -41 -85 -74 -89 -74 -8 0 -211 231 -211 240 0
2 50 47 110 100 118 103 130 125 90 165 -11 11 -23 20 -27 20 -5 0 -53 -43
-108 -96 -55 -53 -107 -100 -116 -105 -14 -7 -34 12 -103 93 l-87 101 33 34
c49 51 158 138 198 158 19 10 36 19 38 20 8 7 -29 75 -46 84 -25 13 -22 13
-47 -1z"/>
<path d="M22904 5116 c-37 -32 -38 -35 -23 -52 9 -11 22 -35 29 -54 15 -43 27
-330 13 -330 -5 0 -96 29 -202 65 -106 36 -199 65 -205 65 -25 0 -46 -36 -46
-77 0 -62 5 -69 48 -65 34 3 387 -79 401 -94 3 -3 4 -106 2 -228 -2 -184 0
-228 12 -259 20 -46 49 -49 97 -8 35 29 35 29 19 58 -28 47 -39 127 -39 273
l0 140 205 -71 c113 -39 215 -69 227 -67 35 5 54 48 43 95 l-10 38 -70 6 c-68
6 -141 24 -314 76 l-83 25 7 164 c9 195 1 288 -26 315 -26 26 -40 24 -85 -15z"/>
<path d="M6866 5107 c-14 -58 -159 -254 -390 -527 -94 -112 -114 -145 -103
-174 9 -22 50 -46 89 -52 31 -5 34 -3 47 31 17 49 129 215 145 215 25 0 76
-63 92 -114 8 -28 20 -126 25 -221 14 -231 35 -269 127 -233 40 16 41 21 18
85 -8 23 -20 92 -26 155 -7 62 -17 138 -24 169 l-12 56 36 -8 c90 -21 176 2
248 66 70 63 95 119 90 198 -8 114 -53 173 -228 296 -58 40 -110 75 -116 78
-6 2 -14 -7 -18 -20z m117 -169 c83 -56 127 -119 127 -181 0 -47 -54 -125
-105 -154 -78 -44 -206 -21 -282 49 l-22 21 61 76 c78 96 179 211 185 211 3 0
19 -10 36 -22z"/>
<path d="M22305 4658 c-11 -6 -90 -64 -176 -128 -85 -64 -164 -122 -174 -127
-17 -10 -13 -18 47 -89 83 -100 216 -287 341 -481 54 -83 105 -154 112 -157 8
-3 47 19 87 47 40 29 115 81 166 116 51 35 97 73 103 83 16 29 3 64 -31 88
l-30 22 -45 -50 c-53 -59 -216 -173 -222 -155 -2 6 -40 64 -84 128 -43 64 -79
120 -79 124 0 5 42 37 93 71 154 105 173 132 122 180 l-24 23 -33 -27 c-57
-46 -211 -156 -218 -156 -9 0 -155 219 -149 223 2 2 36 26 74 54 71 51 182
113 205 113 14 0 5 55 -16 88 -16 24 -38 28 -69 10z"/>
<path d="M7490 4494 c-119 -32 -212 -101 -282 -208 -147 -227 -80 -498 157
-641 198 -118 440 -95 601 57 102 97 154 208 154 333 0 126 -47 225 -153 322
-136 123 -324 178 -477 137z m285 -131 c80 -41 144 -99 180 -164 27 -49 30
-63 30 -144 0 -80 -3 -97 -30 -150 -43 -87 -135 -176 -210 -204 -230 -88 -485
77 -485 314 0 150 123 325 260 370 74 24 183 15 255 -22z"/>
<path d="M8355 4011 c-9 -53 -58 -153 -138 -284 -145 -233 -178 -338 -145
-450 20 -65 97 -141 196 -190 80 -40 90 -42 171 -42 71 0 95 4 136 24 111 54
265 245 375 466 64 127 69 153 38 189 -18 21 -33 27 -68 29 l-44 2 -8 -58
c-20 -159 -215 -469 -332 -529 -107 -55 -279 8 -328 120 -41 93 6 216 196 514
50 78 89 152 93 172 5 34 4 37 -38 56 -24 11 -56 20 -71 20 -23 0 -27 -5 -33
-39z"/>
<path d="M21302 3959 c-86 -15 -193 -62 -326 -144 -69 -43 -126 -80 -126 -82
0 -2 21 -31 48 -63 61 -75 167 -251 278 -460 48 -91 96 -175 107 -187 28 -31
69 -29 146 7 267 127 409 359 360 592 -26 124 -114 249 -208 298 -45 23 -159
50 -201 49 -14 -1 -49 -5 -78 -10z m160 -135 c65 -22 138 -90 178 -166 29 -53
35 -76 38 -145 4 -76 2 -87 -27 -150 -40 -85 -108 -150 -208 -200 -62 -31 -76
-34 -84 -22 -41 62 -126 208 -219 375 -97 175 -108 200 -95 214 23 25 170 100
217 110 55 12 140 5 200 -16z"/>
<path d="M21879 3921 c-33 -33 -37 -65 -12 -101 23 -35 33 -40 75 -40 29 0 42
7 63 32 71 84 -48 186 -126 109z"/>
<path d="M20415 3531 c-134 -39 -274 -139 -332 -238 -60 -103 -81 -259 -48
-366 35 -115 110 -223 195 -277 258 -166 620 -20 720 289 31 98 26 236 -13
331 -91 220 -301 326 -522 261z m202 -114 c141 -52 243 -227 231 -396 -10
-131 -83 -232 -214 -293 -54 -25 -77 -30 -140 -30 -140 0 -240 71 -312 220
-98 205 -21 399 195 488 65 26 182 32 240 11z"/>
<path d="M9272 3455 c-193 -54 -333 -201 -362 -378 -31 -197 109 -394 356
-499 149 -64 226 -58 293 20 45 51 118 189 127 237 9 47 -21 76 -83 82 l-50 5
-5 -56 c-5 -61 -79 -226 -101 -226 -7 0 -39 7 -72 15 -121 32 -249 122 -303
214 -24 41 -27 56 -27 136 0 82 3 96 33 153 41 80 99 137 171 171 49 23 68 26
161 26 98 0 110 -2 175 -33 39 -18 80 -43 93 -55 l24 -22 29 33 c57 64 28 106
-111 157 -94 35 -262 44 -348 20z"/>
<path d="M10000 3171 c0 -21 -11 -78 -25 -126 -23 -80 -55 -162 -200 -514 -56
-134 -54 -154 17 -168 61 -12 88 -6 88 22 0 56 94 355 112 355 19 0 488 -184
488 -192 0 -4 -31 -84 -70 -177 -38 -94 -70 -179 -70 -189 0 -31 34 -53 94
-59 l56 -6 0 35 c0 76 82 317 207 608 64 147 67 162 45 189 -12 16 -32 24 -73
28 l-56 5 -7 -55 c-6 -54 -56 -218 -80 -264 l-11 -22 -130 50 c-71 27 -183 70
-247 95 l-117 45 36 82 c103 239 108 263 58 285 -14 7 -46 12 -70 12 l-45 0 0
-39z"/>
<path d="M19414 3101 c-138 -40 -247 -113 -313 -212 -124 -185 -103 -426 51
-594 133 -146 352 -177 550 -78 188 94 304 314 270 511 -50 294 -285 451 -558
373z m240 -125 c68 -33 119 -90 160 -175 29 -61 31 -74 31 -171 0 -101 -1
-108 -34 -168 -51 -94 -135 -155 -249 -182 -150 -35 -299 46 -373 204 -108
230 -10 443 234 511 74 21 164 13 231 -19z"/>
<path d="M18650 2829 c-63 -23 -160 -55 -216 -72 l-101 -30 33 -71 c30 -65 92
-269 159 -521 70 -265 73 -270 148 -237 70 31 72 38 29 123 -36 72 -108 276
-101 284 2 2 56 19 119 38 154 47 167 53 180 76 12 23 4 65 -15 81 -10 8 -22
7 -47 -6 -35 -19 -261 -95 -266 -90 -1 2 -20 62 -41 134 l-39 132 97 31 c54
18 127 34 169 37 l72 5 0 48 c0 50 -18 79 -48 79 -9 0 -69 -19 -132 -41z"/>
<path d="M11202 2768 c-7 -7 -12 -33 -12 -59 l0 -46 73 -6 c81 -6 207 -35 207
-48 0 -20 -85 -323 -139 -497 -34 -107 -61 -204 -61 -218 0 -36 38 -56 100
-52 l51 3 5 68 c2 37 13 108 24 159 18 85 136 498 145 506 2 2 53 -13 114 -32
61 -20 124 -36 139 -36 46 0 68 34 64 96 -2 19 -8 21 -67 22 -75 1 -204 32
-428 102 -167 53 -195 58 -215 38z"/>
<path d="M12000 2511 c0 -88 -35 -280 -100 -539 -27 -112 -50 -214 -50 -227 0
-43 61 -67 128 -49 20 6 22 13 22 68 0 59 24 233 33 243 3 2 25 -1 48 -7 64
-17 121 -84 209 -245 97 -177 137 -212 198 -169 46 32 46 49 0 97 -24 24 -63
77 -88 117 -25 39 -64 101 -88 137 -24 36 -42 66 -40 67 2 1 21 8 44 14 139
40 231 222 180 357 -22 56 -88 117 -157 143 -43 16 -287 62 -329 62 -6 0 -10
-30 -10 -69z m287 -86 c79 -36 111 -100 92 -184 -25 -112 -102 -166 -232 -164
-43 0 -83 5 -89 11 -8 8 2 64 33 192 l43 182 51 -7 c27 -3 73 -17 102 -30z"/>
<path d="M17700 2559 c-13 -6 -32 -17 -42 -26 -17 -15 -16 -17 2 -44 28 -38
67 -145 90 -243 27 -117 71 -359 66 -364 -5 -4 -276 200 -544 410 -90 70 -174
131 -188 134 -28 7 -66 -14 -90 -51 -15 -23 -15 -25 19 -54 42 -37 65 -108
101 -301 40 -215 49 -298 43 -381 -7 -87 -5 -89 64 -89 38 0 79 26 79 50 0 6
-29 144 -65 307 -36 162 -65 299 -63 304 3 9 55 -29 318 -231 209 -161 399
-300 410 -300 5 0 20 10 34 23 l25 22 -34 130 c-18 72 -54 251 -78 398 -27
165 -51 276 -61 292 -17 27 -43 31 -86 14z"/>
<path d="M13016 2369 l-26 -21 21 -29 21 -30 -33 -52 c-18 -28 -108 -165 -200
-302 -185 -278 -205 -312 -196 -347 7 -26 44 -48 81 -48 18 0 25 9 36 43 15
50 41 104 85 173 l33 51 158 -23 c88 -13 162 -24 165 -24 4 0 15 -35 24 -77
34 -154 75 -233 121 -233 24 0 84 25 84 36 0 2 -6 15 -14 27 -28 44 -76 200
-145 474 -77 303 -93 358 -118 385 -22 24 -64 23 -97 -3z m94 -362 c18 -75 30
-140 27 -144 -7 -7 -225 22 -234 31 -3 2 32 66 78 141 53 89 85 132 89 123 4
-7 22 -75 40 -151z"/>
<path d="M16363 2355 c-245 -53 -413 -270 -389 -501 27 -260 200 -424 448
-424 156 0 280 51 378 157 151 161 181 363 85 560 -87 177 -291 258 -522 208z
m264 -123 c95 -49 156 -143 173 -262 25 -176 -46 -325 -187 -395 -76 -37 -203
-46 -282 -20 -73 24 -150 98 -186 177 -36 79 -47 228 -22 302 34 100 106 171
210 208 75 27 234 21 294 -10z"/>
<path d="M13601 2278 c18 -92 9 -271 -33 -676 -14 -139 -12 -147 47 -176 56
-28 265 -35 355 -12 102 26 166 61 234 126 108 103 151 212 144 359 -3 66 -10
100 -31 144 -51 111 -173 203 -322 241 -57 14 -93 18 -311 31 l-91 6 8 -43z
m354 -93 c70 -18 152 -70 189 -118 52 -68 70 -125 70 -218 -1 -139 -57 -236
-172 -297 -76 -41 -168 -55 -264 -42 -40 6 -76 14 -81 19 -9 9 6 264 28 491 8
80 15 153 15 163 0 15 10 17 78 17 43 0 105 -7 137 -15z"/>
<path d="M18155 2303 c-65 -16 -88 -101 -40 -148 52 -53 144 -14 145 62 0 54
-54 98 -105 86z"/>
<path d="M15445 2262 c-32 -12 -103 -17 -342 -21 -270 -5 -304 -8 -320 -24
-16 -16 -16 -21 -2 -60 16 -45 14 -45 98 -28 46 9 198 16 203 9 0 -2 4 -174 7
-383 l6 -380 26 -12 c19 -9 35 -10 65 -2 61 17 65 25 47 89 -12 43 -17 124
-20 375 l-5 320 135 0 c119 0 137 2 156 19 23 21 27 52 9 91 -13 28 -9 28 -63
7z"/>
<path d="M15653 2260 l-43 -19 14 -39 c29 -81 43 -228 55 -562 5 -135 12 -223
20 -237 14 -28 53 -30 112 -7 34 14 40 20 34 38 -37 117 -51 257 -63 599 -7
200 -9 220 -27 233 -25 19 -52 17 -102 -6z"/>
<path d="M14595 2262 c-11 -2 -33 -8 -48 -14 -25 -10 -28 -15 -22 -37 14 -51
17 -409 5 -596 -7 -127 -8 -199 -1 -217 12 -33 46 -41 102 -25 40 12 44 16 41
43 -11 98 -12 456 -2 609 8 121 8 189 1 206 -10 27 -37 38 -76 31z"/>
</g>
</svg>
